<?xml version="1.0" standalone="no"?>
<!DOCTYPE svg PUBLIC "-//W3C//DTD SVG 20010904//EN"
 "http://www.w3.org/TR/2001/REC-SVG-20010904/DTD/svg10.dtd">
<svg version="1.0" xmlns="http://www.w3.org/2000/svg"
 width="1920.000000pt" height="1079.000000pt" viewBox="0 0 1920.000000 1079.000000"
 preserveAspectRatio="xMidYMid meet">
<metadata>
Created by potrace 1.15, written by Peter Selinger 2001-2017
</metadata>
<g transform="translate(0.000000,1079.000000) scale(0.100000,-0.100000)"
fill="#000000" stroke="none">
<path d="M1065 6174 c-82 -19 -332 -77 -555 -129 -223 -52 -429 -100 -457
-106 -50 -10 -53 -12 -53 -41 0 -20 4 -29 13 -25 7 2 47 12 90 22 42 9 77 21
77 26 0 5 5 9 11 9 5 0 7 -5 3 -11 -4 -8 -1 -8 12 -2 11 6 82 25 159 43 77 18
145 39 151 47 7 8 14 10 15 4 4 -10 155 22 168 35 3 3 -10 3 -29 -1 -19 -5
-44 -10 -55 -11 -11 -2 -32 -7 -47 -10 -19 -4 -28 -2 -28 7 0 7 3 10 6 6 3 -3
16 -2 29 3 13 5 45 11 72 14 44 5 73 13 128 36 34 14 75 21 75 12 0 -11 -60
-32 -91 -32 -13 0 -31 -5 -39 -10 -13 -8 -13 -10 2 -10 37 0 119 25 138 42 11
10 20 15 20 11 0 -4 4 -3 8 4 4 6 21 13 37 17 17 3 40 8 53 12 13 4 22 2 22
-5 0 -5 -6 -8 -14 -5 -8 3 -17 1 -21 -5 -3 -6 -16 -11 -27 -11 -12 0 -19 -3
-15 -6 3 -3 29 -1 57 6 37 9 50 16 46 26 -3 8 -2 14 2 15 4 0 14 2 22 4 8 2
51 11 95 21 44 9 87 20 95 25 29 16 -22 8 -175 -27z"/>
<path d="M18375 6111 c11 -5 29 -12 39 -15 16 -5 17 -9 6 -19 -10 -9 -13 -9
-17 1 -3 6 -16 12 -29 12 -13 0 -24 5 -24 10 0 6 -14 10 -31 10 -19 0 -28 -4
-24 -11 4 -6 13 -8 20 -5 7 2 21 -1 31 -8 29 -20 121 -39 152 -32 19 5 23 4
13 -3 -12 -8 -10 -11 10 -16 13 -3 80 -19 149 -36 69 -16 130 -31 135 -33 6
-1 46 -11 90 -21 44 -9 88 -22 99 -27 13 -7 16 -7 12 1 -4 6 -2 11 3 11 6 0
11 -4 11 -9 0 -5 35 -17 77 -26 43 -10 83 -20 90 -22 9 -4 13 5 13 25 0 26 -4
31 -32 37 -32 6 -397 90 -523 120 -126 30 -241 56 -265 60 -21 4 -22 3 -5 -4z"/>
<path d="M18194 6060 c0 -11 4 -20 8 -20 4 0 8 7 8 15 0 8 3 15 6 15 3 0 12
-7 20 -15 9 -8 11 -15 5 -15 -6 0 -8 -7 -4 -16 5 -13 0 -14 -33 -8 -47 8 -65
21 -57 40 7 18 -2 18 -32 -2 -13 -9 -29 -13 -34 -10 -6 4 -38 8 -73 10 -43 3
-56 1 -40 -5 12 -4 22 -13 22 -19 0 -15 -52 -1 -70 19 -14 15 -64 25 -55 10 3
-4 -13 -5 -35 -2 -27 4 -40 2 -40 -6 0 -6 10 -10 23 -9 12 2 23 -1 24 -7 1 -5
-5 -9 -13 -7 -8 2 -14 -2 -14 -8 0 -7 12 -9 32 -6 31 5 74 -14 61 -27 -3 -4
-12 -2 -20 4 -10 9 -13 8 -13 -1 0 -10 -3 -10 -15 0 -12 10 -15 9 -15 -7 0
-10 10 -24 23 -29 12 -6 16 -9 10 -7 -7 1 -13 -4 -13 -11 0 -8 6 -17 13 -19 9
-4 9 -6 -1 -6 -8 -1 -16 8 -19 19 -3 11 -9 20 -14 20 -5 0 -6 -7 -2 -16 7 -18
-13 -34 -42 -33 -11 0 -14 3 -7 6 6 2 10 9 7 13 -3 5 4 14 15 20 39 21 20 57
-22 41 l-23 -10 23 0 c12 -1 22 -5 22 -10 0 -13 -37 -2 -51 15 -15 18 -4 45
16 38 8 -3 15 -1 15 5 0 6 -6 12 -12 12 -7 1 -22 3 -33 4 -11 1 -28 2 -37 3
-10 1 -18 6 -18 11 0 6 17 7 38 4 21 -3 34 -2 29 3 -7 7 -157 14 -157 8 0 -1
32 -12 70 -23 39 -12 70 -26 70 -32 0 -6 -9 -8 -21 -4 -15 5 -19 4 -14 -5 4
-6 -1 -18 -11 -25 -25 -19 -64 -19 -64 0 0 13 25 21 53 16 4 0 7 4 7 10 0 6
-8 8 -18 5 -10 -4 -32 0 -48 8 -36 18 -96 25 -96 11 0 -5 -6 -14 -14 -18 -27
-15 -14 -26 26 -22 24 2 38 0 35 -6 -4 -5 -1 -9 4 -9 6 0 11 9 11 21 0 27 23
19 25 -9 1 -12 -1 -20 -3 -17 -3 3 -11 0 -18 -6 -10 -8 -17 -7 -28 4 -12 11
-24 13 -51 7 -20 -4 -38 -4 -41 1 -8 14 -18 11 -32 -12 -12 -19 -11 -20 7 -14
12 4 21 2 21 -4 0 -6 -13 -11 -30 -11 -23 0 -31 5 -35 23 -5 20 -13 24 -45 25
-31 2 -38 -1 -34 -13 7 -17 34 -21 34 -4 0 5 5 7 10 4 24 -15 6 -24 -45 -22
-30 1 -55 5 -55 10 0 4 10 7 22 7 12 0 18 3 14 7 -9 10 -46 11 -46 2 0 -4 -9
-11 -20 -14 -41 -13 -17 -22 78 -29 53 -4 113 -9 132 -11 19 -2 163 -16 320
-30 157 -14 357 -32 445 -40 88 -9 185 -18 215 -21 30 -3 71 -7 90 -10 19 -2
74 -7 123 -11 48 -3 87 -10 87 -14 0 -12 -71 -11 -162 0 -40 6 -107 12 -148
15 -41 3 -102 8 -135 11 -33 3 -154 14 -270 25 -115 11 -246 22 -290 25 -44 3
-96 8 -115 10 -19 2 -89 9 -155 15 -66 6 -140 12 -165 15 -25 2 -81 7 -125 10
-44 3 -91 8 -105 10 -83 16 -658 61 -648 50 7 -7 43 -12 111 -14 34 -1 38 -3
32 -21 -5 -17 -2 -20 23 -20 45 0 58 -23 22 -39 -26 -11 -33 -10 -60 9 -19 14
-37 19 -50 15 -23 -7 -17 -25 8 -25 15 0 15 2 2 10 -9 6 -10 10 -3 10 7 0 16
-6 20 -13 7 -11 91 -48 138 -60 11 -3 106 -35 210 -71 105 -37 217 -76 250
-87 33 -11 79 -29 102 -40 24 -10 47 -19 52 -19 11 0 297 -96 326 -109 11 -5
70 -26 130 -47 157 -54 199 -69 210 -76 6 -3 30 -11 55 -18 25 -6 59 -17 75
-24 40 -18 213 -81 405 -149 148 -52 396 -141 470 -169 19 -7 50 -23 69 -35
18 -12 40 -19 47 -16 8 3 14 1 14 -4 0 -9 94 -43 118 -43 9 0 12 109 12 425
l0 425 -26 0 c-14 0 -23 4 -20 9 3 5 15 7 26 4 16 -4 20 0 20 21 0 14 -5 26
-11 26 -5 0 -8 4 -5 9 3 5 -36 16 -87 25 -50 10 -119 26 -152 36 -55 18 -121
32 -152 33 -7 0 -13 4 -13 9 0 5 -4 6 -10 3 -5 -3 -10 -1 -10 4 0 6 -9 11 -21
11 -11 0 -17 -4 -14 -10 9 -15 -4 -12 -21 5 -22 22 -43 19 -37 -4 4 -16 1 -19
-16 -14 -13 3 -21 1 -21 -6 0 -7 -5 -9 -10 -6 -6 4 -8 11 -5 16 4 5 1 9 -4 9
-6 0 -11 5 -11 11 0 6 9 9 20 6 11 -3 22 -2 25 3 3 4 -37 17 -88 29 -92 21
-140 27 -106 13 12 -5 14 -13 8 -29 -9 -24 -24 -30 -34 -13 -3 6 1 10 9 10 9
0 16 5 16 11 0 6 -9 8 -21 4 -12 -4 -19 -3 -16 1 3 5 -2 15 -10 23 -13 12 -14
11 -9 -6 6 -20 6 -20 -28 -4 -25 12 -31 19 -24 29 8 9 6 12 -6 12 -9 0 -16 -5
-16 -12 0 -6 -7 -3 -15 8 -14 18 -14 17 -16 -16 -1 -27 -3 -29 -6 -11 -4 19
-7 21 -14 10 -5 -9 -9 -10 -9 -2 0 6 5 15 11 19 7 4 -1 12 -21 20 -44 19 -56
18 -56 -6z"/>
<path d="M12602 6042 c-16 -2 -22 -8 -18 -19 3 -8 6 -22 7 -31 0 -10 6 -6 13
12 14 30 18 27 35 -18 7 -17 7 -26 1 -26 -6 0 -10 7 -10 15 0 8 -4 15 -9 15
-21 0 3 -38 34 -53 29 -14 35 -14 45 -1 7 7 17 14 23 14 6 0 1 -10 -11 -23
-23 -24 -92 -37 -92 -17 0 6 4 8 10 5 5 -3 7 0 4 9 -3 8 -12 17 -21 20 -11 4
-13 2 -9 -9 7 -20 4 -19 -18 7 -15 18 -16 20 -2 15 21 -8 21 2 -1 18 -22 16
-53 7 -53 -16 0 -14 7 -19 25 -19 18 0 25 -5 25 -20 0 -18 -3 -19 -22 -9 -21
11 -22 11 -10 -4 14 -17 12 -17 -38 -3 -14 3 -38 8 -55 10 -47 5 -106 27 -100
37 4 5 -3 9 -14 9 -14 0 -19 -6 -18 -20 1 -12 7 -18 14 -16 7 3 13 -1 13 -9 0
-18 17 -20 22 -3 4 10 11 10 34 -1 28 -13 28 -14 8 -21 -12 -5 -24 -16 -27
-25 -5 -13 -11 -14 -27 -5 -12 6 -29 10 -38 8 -22 -5 53 -43 80 -41 11 1 18
-3 15 -10 -2 -7 -14 -10 -27 -9 -18 3 -22 0 -16 -15 6 -17 5 -17 -8 0 -7 9
-19 17 -26 17 -7 0 -10 7 -6 16 3 8 2 13 -3 9 -5 -3 -11 0 -13 5 -2 7 -19 8
-47 4 -42 -7 -43 -7 -20 -20 21 -12 21 -13 4 -11 -11 1 -26 6 -32 10 -8 5 -13
3 -13 -3 0 -14 -62 -3 -71 12 -4 6 -9 6 -14 -2 -4 -6 -3 -16 3 -22 7 -7 7 -14
-1 -22 -8 -10 -15 -9 -28 3 -17 14 -17 15 -1 28 15 12 14 13 -6 3 -13 -6 -20
-16 -16 -22 5 -7 2 -9 -9 -5 -10 4 -16 2 -14 -5 1 -7 -11 -14 -28 -18 -16 -3
-29 -9 -27 -13 1 -4 2 -12 2 -19 0 -6 7 -3 16 8 13 15 15 16 10 2 -3 -11 2
-18 17 -21 12 -3 6 -4 -13 -4 -26 2 -38 8 -47 27 -11 22 -13 23 -19 6 -7 -18
-8 -18 -21 0 -7 10 -13 13 -13 6 0 -6 -7 -9 -15 -5 -9 3 -14 8 -11 11 3 2 0
14 -6 25 -9 18 -11 19 -20 4 -10 -19 -48 -23 -48 -6 0 8 -4 8 -13 1 -10 -8
-16 -6 -25 9 -7 11 -8 19 -2 19 5 0 10 -6 10 -12 0 -9 3 -8 10 2 13 21 -13 29
-64 19 -26 -4 -43 -3 -47 3 -4 6 -11 8 -17 4 -13 -8 -43 4 -37 14 9 15 -31 7
-45 -9 -12 -13 -12 -14 3 -8 12 4 20 1 24 -9 5 -13 8 -13 15 -2 7 9 8 4 4 -14
-5 -22 -3 -26 9 -22 8 4 15 1 15 -5 0 -6 4 -11 8 -11 5 0 9 7 9 15 0 8 -4 12
-9 9 -4 -3 -8 -1 -8 5 0 5 4 12 9 15 10 7 21 -16 21 -44 0 -15 -6 -17 -42 -13
-36 5 -40 4 -35 -10 4 -10 2 -17 -3 -17 -20 0 -9 -16 18 -28 21 -9 22 -11 4
-8 -12 2 -20 1 -17 -4 8 -13 -37 -20 -50 -7 -19 20 -17 32 6 37 12 3 25 12 27
19 3 8 0 11 -7 7 -7 -5 -9 -1 -5 8 3 9 2 16 -4 16 -5 0 -12 -9 -15 -20 -4 -14
-10 -18 -23 -13 -14 5 -16 2 -11 -18 5 -18 1 -28 -14 -37 -11 -7 -17 -17 -14
-22 3 -6 2 -10 -3 -10 -6 0 -13 7 -16 16 -3 8 -10 12 -16 9 -5 -3 -10 -1 -10
4 0 6 6 11 13 11 8 0 7 4 -3 10 -13 8 -13 10 1 10 9 0 19 9 22 20 3 11 1 20
-4 20 -14 0 -11 30 5 46 20 19 30 18 21 -3 -5 -15 -4 -16 6 -5 19 17 -4 40
-24 24 -9 -8 -17 -8 -24 -1 -7 7 -9 2 -5 -16 3 -17 -1 -31 -9 -37 -11 -7 -11
-11 -1 -15 6 -2 12 -9 12 -15 0 -6 -11 -3 -25 6 -31 21 -97 22 -89 2 3 -8 1
-17 -4 -20 -6 -3 -13 1 -16 9 -3 9 3 20 13 27 11 6 17 18 14 25 -4 11 -9 9
-20 -7 -15 -21 -39 -18 -26 3 3 7 -3 4 -14 -5 -11 -10 -24 -18 -30 -18 -6 0
-16 -7 -23 -15 -17 -20 -27 -19 -35 5 -4 11 -15 20 -26 20 -11 0 -18 4 -14 10
3 5 12 7 20 3 11 -4 13 -1 9 11 -7 19 -4 19 -44 0 -32 -16 -90 -28 -90 -19 0
6 50 55 56 55 3 0 2 -4 -1 -10 -4 -6 5 -10 19 -10 14 0 26 4 26 10 0 5 -7 7
-15 4 -9 -4 -15 0 -15 10 0 13 -4 14 -25 4 -14 -6 -25 -16 -25 -23 0 -6 -19
-20 -42 -31 -61 -27 -66 -28 -43 -10 11 8 15 16 8 16 -6 0 -15 -5 -18 -10 -3
-6 -18 -8 -33 -5 -25 5 -25 5 -4 -4 12 -6 22 -15 22 -22 0 -6 7 -8 16 -5 10 4
14 1 12 -6 -3 -7 -16 -14 -31 -16 -18 -2 -24 -8 -20 -18 3 -8 1 -14 -5 -14 -5
0 -12 7 -16 15 -3 10 3 17 19 21 15 4 22 11 18 20 -7 18 -25 13 -43 -12 -11
-15 -21 -19 -35 -14 -29 10 -52 1 -59 -23 -9 -35 -7 -40 17 -35 15 3 24 0 24
-9 0 -9 -7 -11 -21 -6 -12 4 -33 6 -48 5 -20 -1 -28 3 -28 16 0 15 2 15 10 2
9 -13 11 -13 19 0 11 16 5 31 -12 29 -7 -1 -23 2 -35 7 -22 10 -23 11 -6 25
10 8 15 9 11 2 -9 -15 35 -28 60 -19 12 5 14 9 5 18 -7 7 -12 17 -12 23 0 6 3
6 8 -1 4 -6 21 -14 39 -17 26 -5 31 -3 26 9 -3 8 -12 13 -20 9 -11 -3 -13 -1
-9 10 4 11 -3 19 -20 25 -31 12 -37 12 -30 1 4 -5 4 -16 0 -24 -7 -19 -44 -10
-44 11 0 13 -3 12 -20 -3 -11 -10 -17 -22 -14 -26 3 -5 0 -9 -5 -9 -12 0 -14
11 -5 34 3 9 12 16 19 16 7 0 15 10 19 22 4 18 8 20 18 10 6 -6 18 -12 25 -12
9 0 8 5 -4 18 -22 21 -73 23 -74 2 -1 -8 -1 -18 0 -22 0 -5 -4 -8 -10 -8 -6 0
-9 -7 -5 -15 3 -8 1 -15 -4 -15 -6 0 -10 -7 -10 -15 0 -13 -4 -14 -20 -5 -11
6 -18 15 -15 19 2 5 -4 20 -15 33 -11 14 -17 28 -14 31 3 3 -1 16 -10 29 -23
33 -20 41 14 35 34 -7 47 5 24 24 -13 10 -17 10 -24 0 -10 -18 -33 -3 -26 16
5 12 1 14 -18 11 -16 -3 -27 0 -30 9 -3 8 -11 11 -17 7 -15 -9 20 -37 37 -30
7 3 15 -2 18 -9 4 -10 -1 -14 -17 -12 -16 1 -22 -3 -21 -15 1 -10 -2 -18 -7
-18 -5 0 -9 8 -9 18 0 14 -2 15 -10 2 -18 -29 -68 -16 -83 20 -5 13 -6 13 -6
0 -1 -9 4 -21 11 -28 9 -9 8 -12 -4 -12 -9 0 -20 5 -24 11 -5 8 -9 7 -14 -1
-11 -18 -68 -20 -81 -3 -15 18 -33 17 -25 -2 3 -8 1 -15 -5 -15 -6 0 -7 -5 -3
-11 4 -8 9 -7 15 2 7 10 11 11 17 2 4 -6 23 -13 42 -16 19 -2 9 -4 -23 -3 -55
0 -58 2 -67 31 -9 29 -10 29 -6 3 3 -24 0 -27 -20 -24 -13 3 -29 8 -36 11 -7
4 -5 0 5 -8 25 -21 21 -25 -20 -23 -36 2 -83 23 -83 37 0 4 15 7 33 8 53 1 67
4 67 13 0 13 -38 9 -44 -4 -3 -7 -3 1 0 18 4 25 1 32 -21 42 -15 7 -25 8 -25
2 0 -6 7 -10 16 -10 23 0 14 -43 -10 -46 -18 -2 -30 -15 -39 -39 -3 -6 -8 -6
-13 -1 -5 5 -4 11 4 13 13 5 17 34 5 32 -20 -3 -31 2 -37 17 -4 10 -2 13 6 8
6 -4 27 -9 46 -11 29 -3 33 -1 23 10 -6 9 -22 12 -37 9 -18 -3 -30 0 -36 12
-5 9 -18 16 -28 16 -12 0 -20 7 -20 17 0 9 -2 14 -5 11 -4 -3 -3 -18 1 -32 5
-21 9 -24 20 -15 20 16 30 3 11 -15 -15 -15 -57 -11 -57 6 0 5 -8 8 -17 7 -29
-2 -39 1 -25 9 9 6 7 14 -8 30 -22 24 -40 29 -40 11 0 -5 4 -8 9 -5 12 8 32
-17 23 -29 -14 -19 -50 -35 -54 -23 -6 16 -45 -7 -53 -32 -7 -22 -20 -26 -30
-10 -4 6 -11 8 -16 5 -5 -4 -9 -1 -9 6 0 8 -4 8 -15 -1 -8 -7 -15 -18 -15 -25
0 -8 -9 -10 -25 -7 -16 3 -25 0 -25 -8 0 -7 7 -10 16 -6 8 3 24 2 33 -4 20
-10 47 -67 37 -77 -3 -3 -6 1 -6 10 0 9 -4 17 -10 17 -5 0 -10 9 -10 20 0 16
-6 20 -30 18 l-30 -2 0 -66 c0 -46 3 -61 10 -50 8 13 10 12 10 -3 0 -10 5 -15
10 -12 6 3 10 -1 10 -9 0 -19 -16 -21 -23 -3 -11 31 -14 -5 -8 -89 3 -50 6
-150 6 -222 0 -73 4 -132 8 -132 4 0 3 -10 -4 -21 -9 -17 -8 -20 3 -14 10 6
10 5 1 -5 -8 -8 -9 -19 -3 -29 11 -21 19 -166 25 -440 3 -166 8 -227 17 -233
19 -11 28 -10 28 5 0 9 2 9 8 0 9 -14 45 -16 250 -15 78 1 150 1 160 1 53 0
864 -2 1347 -3 323 0 568 3 579 8 14 7 17 6 12 -2 -5 -8 26 -11 105 -11 94 0
110 2 105 14 -3 8 -1 15 3 15 5 0 11 -6 14 -14 7 -19 1237 -23 1237 -4 0 9 3
9 12 0 15 -15 122 -17 113 -2 -3 6 -1 10 4 10 6 0 11 -5 11 -10 0 -10 29 -11
290 -10 117 1 112 1 183 -5 37 -3 57 0 57 7 0 7 4 7 13 0 7 -6 73 -10 157 -11
118 0 149 2 170 16 23 15 24 15 12 0 -12 -15 -6 -16 70 -11 46 2 178 7 293 10
116 3 211 7 212 8 2 1 -16 12 -40 24 -23 11 -51 29 -63 39 -11 10 -40 29 -65
42 -83 46 -231 143 -282 186 -6 6 -29 19 -49 28 -20 10 -43 23 -50 30 -16 14
-82 57 -120 76 -15 8 -38 24 -50 35 -12 12 -26 20 -30 18 -5 -1 -8 2 -8 7 0 4
-20 16 -45 25 -25 10 -45 21 -45 25 0 12 -57 41 -80 41 -11 0 -18 4 -15 10 7
12 -72 70 -95 70 -9 0 -31 14 -49 31 -23 22 -38 28 -54 24 -16 -5 -18 -4 -8 3
11 8 10 12 -6 21 -11 5 -24 7 -29 3 -5 -4 -6 -3 -2 2 6 7 -72 66 -88 66 -3 0
-29 18 -59 40 -30 22 -67 46 -82 52 -15 7 -30 15 -33 19 -14 17 -168 109 -182
109 -10 0 -18 5 -18 10 0 6 -10 10 -22 10 -17 0 -20 3 -9 9 11 7 6 13 -20 26
-19 10 -47 27 -64 39 -16 12 -38 26 -47 31 -9 6 -47 31 -85 56 -102 69 -199
129 -206 129 -4 0 -7 -4 -7 -10 0 -5 6 -10 14 -10 8 0 16 -7 20 -15 3 -8 12
-12 21 -9 8 3 15 2 15 -4 0 -5 16 -17 35 -26 34 -16 51 -44 19 -32 -9 3 -28 6
-42 7 -24 0 -25 1 -7 9 l20 9 -20 2 c-11 1 -27 3 -35 5 -8 1 -19 2 -25 3 -5 1
-4 5 4 10 11 7 7 13 -17 25 -40 21 -41 20 -35 -6 4 -21 3 -21 -7 -5 -6 9 -15
15 -21 12 -5 -4 -9 -2 -9 3 0 5 -11 7 -24 5 -15 -3 -31 2 -44 15 l-21 21 30
-1 c16 -1 29 -5 29 -10 0 -5 -4 -6 -10 -3 -5 3 -10 1 -10 -4 0 -6 7 -11 15
-11 8 0 15 5 15 11 0 6 8 8 18 5 10 -4 8 1 -7 13 l-24 19 21 7 c12 3 20 11 16
16 -3 5 -10 6 -16 3 -7 -4 -8 -2 -4 4 4 8 -4 16 -21 23 -15 5 -30 14 -33 18
-3 4 -21 16 -41 28 -20 11 -49 29 -65 39 l-29 18 19 -22 c19 -22 19 -22 -7
-22 -17 0 -27 -5 -27 -15 0 -8 -7 -15 -16 -15 -8 0 -12 5 -9 10 3 6 1 10 -4
10 -6 0 -11 -6 -11 -12 0 -7 -5 -5 -11 4 -7 12 -6 24 1 38 9 16 8 18 -5 14 -8
-3 -12 -11 -9 -16 4 -6 -2 -8 -15 -3 -13 4 -21 2 -21 -5 0 -19 -26 -39 -40
-30 -10 6 -10 9 1 13 10 4 9 6 -3 6 -10 1 -18 8 -18 17 0 11 6 14 21 9 15 -5
19 -4 15 4 -4 6 -16 11 -27 11 -10 0 -19 6 -19 14 0 19 -9 23 -38 18z"/>
<path d="M921 6013 c-1 -7 -9 -13 -19 -13 -10 0 -35 -9 -56 -20 -45 -22 -56
-19 -49 13 7 25 1 22 -16 -10 -10 -19 -8 -24 18 -39 26 -15 27 -19 14 -32 -10
-10 -11 -18 -4 -25 6 -6 11 -15 11 -21 0 -5 -8 -1 -19 10 -10 10 -14 22 -9 25
12 8 -21 41 -33 34 -5 -4 -9 -2 -9 3 0 5 -8 19 -19 31 -16 18 -20 19 -25 5 -9
-24 -7 -42 3 -25 7 10 10 10 16 1 12 -20 -18 -32 -32 -13 -7 9 -13 12 -13 7 0
-12 -23 -12 -59 0 -16 6 -26 4 -32 -5 -12 -19 -11 -29 2 -29 5 0 7 5 4 10 -3
6 2 10 12 10 16 0 16 -2 2 -15 -18 -18 -53 -9 -45 11 3 8 -1 14 -10 14 -11 0
-15 -6 -11 -20 4 -15 0 -20 -15 -20 -12 0 -17 -4 -12 -12 5 -7 2 -9 -9 -5 -9
3 -18 1 -20 -6 -3 -9 -8 -9 -20 2 -9 7 -24 10 -33 7 -13 -5 -14 -1 -9 24 6 25
4 29 -13 25 -11 -2 -37 -6 -58 -10 -63 -9 -114 -27 -108 -37 3 -5 13 -3 22 4
13 11 14 11 10 -2 -6 -18 -38 -26 -47 -12 -4 6 -45 3 -113 -10 -59 -11 -105
-24 -102 -29 3 -5 0 -9 -5 -9 -6 0 -11 -12 -11 -26 0 -23 3 -25 25 -20 14 4
25 2 25 -4 0 -10 -14 -14 -38 -11 -9 2 -12 -89 -12 -425 l0 -426 35 6 c19 4
67 19 107 35 40 15 105 38 143 50 82 26 231 79 260 91 58 25 164 58 169 52 4
-3 10 -2 14 4 8 12 194 83 312 120 162 49 260 88 247 97 -7 5 -3 6 10 2 20 -5
323 89 376 117 10 5 53 20 95 33 73 22 457 152 682 230 58 21 114 42 125 48
11 6 27 12 35 12 12 2 165 50 219 70 8 3 11 8 9 11 -3 3 -32 -4 -64 -16 -32
-11 -65 -20 -74 -20 -8 0 -28 -7 -44 -15 -35 -18 -37 -18 -30 -2 3 10 -4 13
-26 12 -18 -1 -30 3 -30 11 0 7 -8 11 -17 9 -10 -2 -21 -4 -25 -4 -5 -1 -8 -5
-8 -11 0 -5 7 -7 15 -4 10 4 15 0 15 -14 0 -11 6 -23 13 -25 7 -3 5 -6 -5 -6
-10 -1 -18 5 -18 13 0 8 -9 18 -20 21 -11 3 -20 11 -20 16 0 6 -4 7 -10 4 -5
-3 -10 -17 -10 -30 0 -19 4 -23 17 -18 12 5 14 3 8 -7 -6 -10 -4 -12 9 -7 10
4 15 3 11 -3 -7 -12 -56 -14 -54 -2 4 25 -3 42 -18 43 -17 0 -17 1 0 7 16 7
16 10 3 27 -10 14 -27 20 -60 21 -41 2 -45 0 -29 -12 23 -17 40 -18 45 -2 3 9
9 8 22 -5 17 -16 16 -17 -6 -18 -13 -1 -29 -1 -36 0 -7 1 -15 -5 -18 -14 -3
-8 -14 -15 -23 -14 -10 0 -11 2 -3 6 15 6 16 43 1 43 -5 0 -8 -4 -5 -9 3 -5
-3 -11 -13 -14 -15 -3 -17 0 -14 17 3 13 1 17 -4 10 -11 -15 -50 -27 -94 -29
-20 -1 -41 -5 -47 -9 -15 -9 -21 15 -10 43 7 20 6 22 -9 15 -10 -4 -35 -8 -55
-9 -21 0 -38 -4 -38 -8 0 -5 -10 -7 -22 -5 -11 2 -23 -3 -26 -11 -4 -11 7 -13
59 -8 35 3 54 3 42 0 -13 -2 -23 -12 -23 -21 0 -15 2 -15 11 -2 9 13 10 13 6
0 -2 -8 -10 -15 -18 -15 -8 0 -14 -10 -13 -22 0 -19 -2 -20 -19 -11 -15 8 -17
12 -7 18 9 6 6 10 -11 13 -23 4 -23 4 3 6 41 2 45 21 4 21 -19 0 -37 -6 -39
-12 -3 -7 -6 -3 -6 10 -1 18 -7 22 -32 22 -28 0 -30 2 -18 16 12 15 11 16 -11
9 -20 -6 -23 -5 -12 6 14 16 16 33 2 24 -5 -3 -10 -1 -10 5 0 7 -7 7 -22 -1
-22 -12 -22 -12 -3 -20 15 -6 16 -8 4 -8 -9 -1 -22 -8 -29 -16 -10 -12 -10
-15 3 -15 8 0 17 6 20 13 2 7 8 8 13 3 5 -5 4 -11 -4 -13 -6 -3 -10 -8 -7 -13
8 -12 -29 -6 -43 8 -16 15 -29 15 -37 2 -3 -5 -11 -10 -16 -10 -14 0 -7 33 11
47 8 7 11 13 5 14 -70 9 -96 7 -101 -6 -9 -21 -25 -19 -18 3 5 13 4 14 -4 3
-5 -7 -15 -10 -21 -7 -6 4 -11 2 -11 -3 0 -6 5 -11 10 -11 20 0 9 -21 -15 -30
-15 -6 -25 -17 -25 -30 0 -15 -7 -20 -25 -20 -14 0 -25 5 -25 10 0 6 -10 10
-22 11 -15 0 -18 2 -8 6 8 3 21 12 28 21 10 14 12 12 12 -11 0 -15 5 -27 10
-27 9 0 11 6 14 43 1 6 8 15 16 19 8 4 -9 7 -38 5 -28 -1 -52 1 -52 6 0 10
-28 9 -32 -2 -5 -13 -48 -24 -48 -12 0 6 6 11 14 11 25 0 25 15 0 16 -13 1
-21 -2 -18 -7 3 -5 0 -9 -5 -9 -6 0 -11 -6 -11 -14 0 -21 40 -26 69 -9 l26 17
-22 -22 c-12 -12 -25 -22 -29 -22 -4 0 -12 -7 -19 -17 -8 -11 -14 -13 -19 -5
-4 7 -2 12 5 12 9 0 8 5 -2 18 -30 36 -39 60 -26 65 7 3 2 6 -10 6 -19 1 -22
6 -19 30 2 22 -2 31 -15 34 -16 4 -17 2 -8 -15 6 -11 7 -23 3 -26 -4 -4 -9 -1
-11 6 -3 6 -11 12 -19 12 -8 0 -13 5 -12 11 2 6 -3 14 -10 16 -8 3 -10 -1 -5
-14 6 -15 4 -16 -8 -6 -12 10 -17 8 -27 -8 -7 -11 -10 -24 -7 -29 4 -6 -1 -10
-9 -10 -9 0 -16 -5 -16 -11 0 -5 -4 -7 -10 -4 -15 9 -30 -4 -24 -20 5 -11 10
-11 26 5 12 11 24 17 28 15 5 -3 10 2 14 10 7 19 26 20 26 1 0 -15 29 -30 39
-20 3 3 -3 12 -13 20 -16 11 -17 17 -7 27 10 10 18 6 39 -19 15 -18 34 -34 42
-37 8 -3 3 -6 -12 -6 -16 -1 -28 4 -28 11 0 6 -9 1 -20 -12 l-20 -23 20 -22
c11 -12 20 -29 20 -38 0 -14 6 -16 25 -11 19 5 25 2 25 -10 0 -9 -4 -16 -10
-16 -5 0 -10 5 -10 11 0 5 -5 7 -10 4 -6 -4 -8 -10 -5 -15 3 -4 -3 -6 -13 -3
-14 3 -18 11 -14 30 4 19 1 24 -9 21 -8 -3 -13 -11 -11 -18 3 -13 -15 -30 -30
-30 -5 0 -8 7 -8 16 0 11 -6 14 -21 9 -20 -7 -20 -6 -3 14 12 14 20 17 25 9 4
-6 15 -8 25 -4 17 7 17 9 3 19 -11 8 -14 19 -9 32 9 23 3 38 -11 30 -5 -4 -9
-1 -9 5 0 7 -7 5 -16 -5 -12 -12 -13 -19 -5 -29 9 -11 6 -15 -14 -18 -28 -6
-29 -4 -15 23 6 11 7 19 1 19 -5 0 -11 -7 -15 -15 -3 -8 -12 -12 -21 -9 -8 3
-15 1 -15 -6 0 -6 -4 -9 -9 -5 -6 3 -14 -2 -19 -12 -8 -14 -13 -15 -26 -4 -8
7 -19 10 -24 8 -4 -3 -14 -2 -22 4 -10 6 -11 9 -2 9 6 0 12 8 12 18 1 15 2 15
15 -2 8 -11 15 -14 15 -8 0 7 14 12 33 13 17 0 26 3 19 6 -6 2 -9 9 -6 15 4 6
0 14 -7 19 -10 6 -11 9 -1 9 6 0 12 5 12 11 0 6 -7 9 -15 6 -8 -4 -17 -2 -20
3 -3 5 3 11 12 13 16 4 16 5 1 6 -9 0 -23 -11 -30 -26 -11 -23 -20 -28 -49
-28 -26 -1 -35 3 -32 12 3 7 1 13 -4 13 -12 0 -15 -43 -3 -50 4 -3 2 -16 -6
-30 l-15 -25 5 24 c3 13 -1 30 -9 37 -7 8 -15 18 -17 24 -1 5 -37 10 -78 11
-41 1 -86 6 -100 11 -24 10 -24 11 -5 18 11 5 26 9 34 9 11 1 11 -2 0 -16 -12
-14 -12 -16 1 -11 8 2 15 13 15 24 0 14 8 19 32 20 18 1 30 -2 27 -7 -3 -5
-12 -9 -20 -9 -8 0 -14 -5 -14 -11 0 -7 7 -8 18 -3 9 4 28 7 40 7 18 -1 23 3
19 17 -3 12 0 17 8 14 7 -3 16 0 20 6 6 9 -3 11 -33 6 -27 -3 -42 -1 -46 7 -3
9 -5 9 -5 0z"/>
<path d="M15959 6001 c-8 -44 -7 -63 3 -53 7 7 20 12 29 12 10 0 19 6 22 13 4
10 7 10 18 0 11 -11 10 -13 -6 -13 -16 0 -17 -2 -6 -9 11 -7 8 -9 -10 -10 -52
-1 -104 -11 -107 -21 -2 -5 -8 -8 -13 -4 -5 3 -9 0 -9 -5 0 -12 27 -10 48 2 6
5 12 4 12 -2 0 -16 -23 -26 -51 -23 -18 2 -29 -3 -33 -15 -6 -15 -9 -15 -16
-3 -6 9 -5 17 2 21 15 10 0 47 -23 54 -10 4 -17 11 -14 16 4 5 1 9 -4 9 -16 0
-13 -20 4 -26 16 -7 21 -24 6 -24 -5 0 -17 8 -27 17 -10 10 -35 18 -58 19 -23
1 -53 5 -68 9 -24 6 -28 4 -28 -14 0 -12 -7 -24 -15 -27 -26 -10 -16 -21 30
-33 25 -6 45 -16 45 -21 0 -6 -4 -10 -9 -10 -5 0 -7 -9 -4 -20 9 -36 32 -24
27 14 -2 19 0 38 6 41 5 3 10 0 10 -8 0 -20 26 -29 65 -21 30 5 33 4 37 -25 5
-32 -8 -43 -18 -16 -4 10 -20 15 -51 15 -24 0 -42 -4 -39 -9 3 -5 -1 -15 -10
-22 -16 -13 -25 -7 -38 26 -6 16 -36 -28 -30 -46 4 -15 0 -14 -36 3 -22 11
-56 20 -76 20 -22 0 -32 3 -24 8 16 10 4 30 -18 30 -11 0 -18 8 -19 23 -2 19
0 20 10 7 12 -16 47 -16 47 1 0 5 -8 9 -17 9 -10 0 -25 5 -33 11 -11 8 -3 9
29 4 43 -6 44 -5 28 13 -9 10 -17 22 -17 27 0 5 10 -2 22 -15 21 -22 22 -22
29 -4 11 28 10 41 -1 24 -7 -11 -12 -12 -17 -3 -5 6 -23 10 -41 8 -39 -3 -56
-15 -21 -15 18 0 21 -2 10 -9 -9 -6 -22 -6 -32 0 -12 6 -20 5 -24 -1 -4 -6
-16 -8 -28 -4 -29 9 -29 8 -18 37 12 31 0 43 -26 28 -10 -6 -13 -11 -7 -11 6
0 11 -7 11 -15 0 -10 -6 -13 -18 -10 -11 4 -23 -2 -34 -17 l-16 -23 3 26 c3
32 -24 63 -41 46 -6 -6 -11 -26 -11 -44 0 -38 -8 -41 -44 -12 -14 11 -26 15
-26 9 0 -6 -5 -8 -11 -4 -25 15 -76 15 -82 0 -12 -31 -28 -17 -22 18 7 33 6
34 -27 31 -27 -2 -33 -7 -34 -26 -2 -46 -4 -50 -21 -48 -32 3 -44 -1 -38 -11
6 -10 -13 -15 -48 -12 -11 1 -17 -3 -14 -10 2 -7 12 -12 21 -12 9 1 16 -2 16
-7 0 -5 -9 -9 -20 -9 -13 0 -18 -5 -13 -16 5 -13 -1 -14 -33 -9 -38 6 -38 6
-14 -9 14 -8 25 -19 25 -25 0 -21 20 -16 23 6 5 31 29 50 45 33 10 -10 9 -12
-5 -7 -10 4 -18 3 -18 -2 0 -5 12 -12 26 -15 25 -7 26 -8 8 -21 -16 -12 -17
-17 -6 -34 16 -28 16 -29 -13 -24 -13 3 -27 14 -30 24 -5 15 -10 16 -32 8 -19
-7 -29 -6 -37 2 -8 9 -7 10 6 6 12 -4 16 -1 15 13 -1 10 -5 16 -10 13 -13 -8
-35 28 -29 49 2 10 8 15 13 12 5 -3 9 0 9 6 0 6 4 9 9 6 5 -4 8 2 6 11 -2 10
-4 20 -4 22 -1 2 -12 -9 -25 -24 -14 -16 -23 -32 -20 -37 3 -4 -1 -11 -10 -14
-22 -8 -27 -31 -11 -48 13 -12 11 -15 -12 -21 -17 -4 -31 -1 -42 9 -10 11 -11
16 -3 16 7 0 12 -4 12 -10 0 -5 4 -10 9 -10 5 0 9 11 9 25 0 16 -6 25 -17 25
-14 0 -14 2 -1 10 10 6 11 10 3 10 -7 0 -13 7 -13 15 0 8 -4 15 -9 15 -6 0 -8
-8 -6 -18 5 -29 -11 -45 -44 -44 -17 0 -31 -4 -31 -10 0 -6 10 -8 23 -6 31 6
57 -28 46 -60 -10 -25 -29 -30 -29 -6 0 12 -6 15 -25 10 -18 -5 -25 -2 -25 7
0 10 9 13 30 11 30 -4 40 8 19 22 -6 3 -15 0 -20 -7 -8 -12 -11 -12 -20 1 -8
11 -12 12 -16 3 -7 -19 -16 -16 -31 8 -13 21 -12 21 15 15 18 -5 24 -4 18 2
-15 14 -68 25 -60 12 3 -5 0 -10 -9 -10 -8 0 -16 6 -19 13 -3 8 -8 5 -13 -8
-5 -11 -19 -21 -31 -22 -18 -2 -22 2 -20 20 1 12 7 25 12 29 6 4 2 8 -9 8 -12
0 -16 -5 -12 -15 8 -23 -4 -45 -26 -45 -22 0 -20 -22 3 -28 11 -3 11 -2 -1 7
-20 14 -4 14 37 -1 18 -7 33 -18 33 -26 0 -7 -5 -10 -11 -6 -24 14 -83 22
-105 13 -19 -7 -24 -5 -24 7 0 12 -7 15 -25 12 -14 -3 -28 -1 -32 5 -3 5 -1 7
5 3 6 -3 13 -2 16 3 3 4 -12 8 -33 7 -22 0 -37 -4 -35 -8 3 -5 1 -8 -5 -8 -6
0 -8 -6 -5 -13 4 -12 -5 -13 -60 -8 -4 1 -6 10 -3 21 3 11 1 21 -4 21 -5 1
-13 3 -19 4 -5 1 -16 3 -22 4 -7 1 0 9 15 17 16 9 34 13 41 11 6 -3 12 3 12
12 0 9 -9 16 -21 17 -11 0 -29 4 -39 9 -14 6 -17 5 -11 -4 6 -10 2 -11 -16 -7
-23 7 -23 7 -5 -8 11 -9 16 -16 10 -16 -5 0 -20 9 -34 20 l-25 20 32 0 c17 0
33 6 36 13 3 9 9 9 30 -2 27 -14 57 -9 57 9 0 8 -11 9 -30 5 -21 -5 -30 -3
-30 6 0 7 -3 10 -6 6 -10 -10 -64 22 -64 38 0 8 9 15 20 15 17 0 19 2 8 14 -7
8 -15 11 -18 7 -3 -4 -15 -10 -28 -14 -19 -4 -22 -2 -17 13 5 17 3 18 -25 7
l-30 -12 21 -16 c12 -9 19 -21 15 -28 -5 -7 1 -11 16 -10 13 0 17 3 10 6 -6 2
-10 9 -6 14 8 14 24 10 24 -6 0 -31 -95 -44 -121 -18 -7 7 -3 9 14 6 14 -3 27
0 31 5 4 6 -2 8 -14 5 -11 -3 -20 0 -20 6 0 6 6 11 13 11 8 0 7 4 -3 10 -13 9
-13 11 0 21 13 9 13 10 -2 6 -9 -3 -19 -1 -22 6 -4 7 -4 0 -1 -15 4 -21 1 -28
-10 -28 -8 0 -14 -3 -14 -7 4 -22 -2 -32 -15 -27 -8 3 -16 -2 -19 -13 -4 -16
-5 -16 -6 0 -1 19 -16 23 -26 7 -3 -5 -1 -10 6 -10 8 0 9 -12 5 -37 -5 -30 -4
-34 4 -20 6 9 18 17 26 17 12 0 11 -4 -3 -20 -27 -28 -65 -17 -56 18 4 18 3
23 -7 17 -9 -6 -10 -3 -1 13 12 22 2 35 -35 46 -19 6 -22 3 -20 -19 1 -18 5
-23 17 -20 12 4 18 -2 21 -20 5 -23 3 -25 -31 -24 -30 2 -32 3 -8 6 15 2 27 9
27 14 0 5 -11 7 -25 3 -27 -7 -33 4 -13 24 17 17 1 28 -21 15 -14 -9 -22 -9
-31 0 -9 9 -9 6 1 -10 7 -12 17 -19 21 -17 15 10 8 -14 -9 -27 -15 -12 -16
-12 -10 4 4 11 1 20 -8 23 -8 4 -15 15 -15 26 0 11 -5 16 -11 13 -20 -13 -57
-13 -52 1 6 15 -40 12 -60 -4 -16 -13 -33 -3 -40 23 -3 14 -5 10 -6 -11 -1
-27 -41 -83 -41 -57 0 6 7 16 15 23 8 7 12 17 8 24 -4 6 -6 20 -5 32 3 23 -20
48 -39 42 -8 -3 -6 -9 5 -20 9 -9 16 -18 16 -20 0 -7 -76 -2 -81 6 -8 10 -49
-11 -49 -24 0 -6 -4 -10 -10 -10 -5 0 -7 8 -3 18 6 15 4 15 -16 -3 -20 -17
-21 -21 -7 -31 23 -16 20 -25 -9 -21 -30 4 -67 41 -60 59 7 17 -36 20 -47 4
-6 -8 -11 -7 -17 2 -6 11 -10 10 -15 -3 -5 -14 -1 -17 24 -13 16 3 28 2 25 0
-3 -3 0 -11 7 -19 6 -7 8 -17 4 -21 -4 -4 -13 1 -20 11 -7 9 -21 17 -31 17 -9
0 -19 9 -22 20 -3 11 -10 20 -15 20 -5 0 -6 -4 -3 -10 3 -5 1 -10 -4 -10 -6 0
-11 7 -11 15 0 9 -6 12 -15 9 -11 -5 -13 -2 -9 10 4 12 2 15 -9 10 -9 -3 -26
0 -39 6 -45 24 -3 -10 73 -57 41 -25 110 -68 154 -96 44 -28 135 -84 203 -126
67 -42 133 -83 146 -91 12 -8 70 -43 127 -78 57 -35 147 -91 201 -125 92 -60
121 -77 198 -122 19 -11 48 -29 64 -40 21 -14 31 -16 34 -7 2 6 8 12 14 12 7
0 6 -5 -1 -14 -10 -11 3 -23 65 -62 42 -27 79 -49 83 -49 3 0 12 -4 19 -8 6
-5 16 -5 22 -2 5 3 8 0 5 -7 -5 -12 5 -20 95 -70 39 -23 173 -105 255 -158
165 -106 227 -141 241 -136 8 3 12 2 9 -3 -6 -10 55 -61 72 -61 6 0 22 -11 37
-25 15 -14 34 -25 42 -25 7 0 14 -4 14 -10 0 -5 16 -10 35 -10 19 0 35 -4 35
-10 0 -5 -8 -7 -17 -4 -22 6 -15 1 85 -65 l67 -44 389 -4 c298 -4 387 -2 381
7 -6 9 -2 9 14 1 13 -7 66 -11 134 -10 61 0 117 0 122 -1 6 -1 15 -2 20 -1 6
1 39 2 75 2 65 0 441 0 470 0 8 0 52 -1 98 -4 50 -3 82 0 82 6 0 6 4 6 13 0 7
-6 36 -7 72 -3 33 4 64 5 69 2 5 -3 154 -4 330 -3 402 4 822 4 1056 1 8 0 111
-1 228 -2 l212 -3 0 185 0 185 -48 17 c-26 9 -99 35 -162 58 -63 23 -131 46
-150 52 -19 5 -39 14 -44 19 -6 5 -20 9 -33 9 -13 0 -23 5 -23 11 0 5 -5 7
-11 4 -5 -4 -18 0 -28 9 -11 10 -25 14 -36 10 -13 -5 -16 -4 -11 4 8 13 8 13
-124 62 -47 17 -92 35 -100 41 -18 11 -20 12 -95 34 -33 9 -71 23 -85 29 -14
7 -52 21 -85 30 -33 10 -69 22 -80 27 -11 5 -63 24 -116 43 -53 19 -105 39
-115 45 -11 5 -44 18 -74 27 -30 9 -111 39 -180 67 -69 28 -133 50 -144 49
-10 0 -25 6 -33 14 -8 7 -23 14 -33 14 -10 0 -26 3 -36 7 -12 4 -15 3 -10 -5
4 -7 2 -12 -3 -12 -6 0 -11 7 -11 15 0 8 -15 19 -32 24 -18 5 -105 35 -193 66
-88 31 -225 78 -305 105 -80 27 -162 56 -182 64 -46 20 -59 20 -52 2 3 -8 11
-13 18 -10 18 7 66 -13 66 -27 0 -8 -4 -8 -15 1 -13 10 -15 9 -15 -11 l0 -23
-16 22 c-16 24 -35 30 -30 10 1 -7 1 -10 -1 -6 -2 4 -20 4 -39 1 -19 -3 -34
-1 -34 4 0 6 11 8 25 5 15 -2 25 0 25 7 0 10 -21 16 -42 12 -5 0 -8 3 -8 8 0
5 -7 11 -14 14 -11 4 -13 1 -9 -10 4 -10 2 -14 -5 -9 -6 3 -13 2 -17 -4 -3 -5
-11 -10 -17 -10 -6 0 -4 8 5 18 23 25 21 32 -9 32 -14 0 -23 4 -20 8 3 5 -24
8 -60 7 -53 -1 -61 1 -44 10 16 8 18 13 8 23 -9 9 -8 12 4 12 27 0 70 -19 64
-29 -4 -5 3 -7 13 -4 11 3 34 -2 53 -10 34 -16 88 -30 88 -24 0 2 -49 23 -109
47 -94 36 -112 41 -124 29 -7 -8 -12 -20 -9 -28 3 -8 -8 -4 -26 9 -17 13 -48
24 -69 26 -21 1 -37 7 -35 13 3 16 -25 13 -31 -3 -4 -9 -14 -12 -26 -9 -22 6
-29 23 -9 23 6 0 4 6 -7 13 -22 17 -8 28 24 20 17 -4 19 -8 9 -15 -8 -5 -4 -6
14 -2 19 4 29 1 36 -11 5 -11 12 -13 16 -7 3 5 0 15 -8 21 -19 16 -106 41
-106 30 0 -5 -7 -9 -15 -9 -14 0 -13 -3 1 -25 10 -15 12 -25 5 -25 -6 0 -11 7
-11 15 0 19 -16 20 -23 1 -3 -8 -1 -17 6 -19 7 -2 9 -7 5 -11 -3 -4 -19 -1
-35 8 -15 8 -21 15 -13 16 9 0 22 10 30 21 8 12 21 28 28 35 11 12 10 14 -5
14 -10 1 -35 7 -55 14 -21 8 -39 11 -39 7z m-916 -58 c4 -3 3 -11 -2 -17 -4
-6 -11 -20 -15 -30 -5 -16 -4 -17 9 -6 13 11 15 8 14 -16 0 -16 -3 -23 -6 -16
-7 18 -19 15 -20 -7 -1 -14 5 -18 28 -17 16 1 29 5 29 9 0 5 5 5 10 2 6 -3 10
2 10 11 0 14 -3 15 -12 6 -19 -19 -25 -14 -25 18 0 17 5 29 11 27 6 -2 19 4
29 14 21 19 51 14 43 -7 -7 -18 4 -18 32 2 17 12 22 12 22 2 0 -17 45 -22 71
-8 15 9 17 8 12 -5 -4 -11 -16 -15 -39 -13 -35 3 -71 -20 -46 -29 20 -8 14
-22 -8 -16 -22 6 -26 18 -10 28 16 10 12 25 -6 25 -10 0 -14 -6 -10 -15 3 -8
1 -15 -4 -15 -6 0 -10 -4 -10 -9 0 -15 52 -27 104 -25 32 2 53 -2 63 -12 14
-13 12 -14 -13 -8 -26 6 -27 5 -16 -8 8 -10 9 -19 3 -22 -5 -4 -12 -2 -16 4
-9 15 -28 12 -22 -3 3 -8 1 -20 -4 -28 -7 -11 -9 -9 -9 7 0 21 -4 22 -72 19
-45 -2 -65 0 -53 5 16 7 17 9 3 9 -9 1 -19 7 -21 14 -4 9 -7 9 -14 0 -6 -8
-25 -11 -51 -9 -25 3 -40 1 -37 -5 4 -5 1 -17 -5 -26 -11 -17 -11 -17 -6 0 3
9 1 17 -5 17 -6 0 -8 9 -4 22 6 17 4 20 -9 15 -10 -4 -15 -3 -12 2 3 5 -1 12
-10 15 -18 7 -9 26 12 26 8 0 12 -4 9 -10 -4 -6 6 -10 22 -10 l28 1 -27 15
c-29 15 -40 48 -13 38 8 -4 15 -12 15 -20 0 -8 5 -14 11 -14 5 0 7 5 3 11 -3
6 -1 15 5 19 7 4 13 17 14 28 1 22 8 27 20 15z"/>
<path d="M9242 5960 c-8 -13 -8 -20 -1 -20 5 0 8 -4 5 -9 -3 -5 -15 -7 -26 -4
-11 3 -20 0 -20 -6 0 -6 5 -11 12 -11 6 0 20 -8 30 -17 19 -17 21 -17 50 0 17
10 33 15 36 13 7 -8 -25 -36 -33 -28 -4 4 -5 -5 -1 -20 4 -18 2 -28 -4 -28 -6
0 -8 5 -5 10 10 16 -23 24 -40 10 -10 -9 -15 -9 -15 -1 0 6 5 11 10 11 6 0 10
4 10 10 0 15 -59 42 -80 35 -10 -3 -21 -1 -25 5 -3 6 -11 8 -16 5 -5 -3 -7 0
-6 7 2 7 2 10 0 6 -10 -17 -32 -8 -26 10 6 15 5 15 -10 4 -18 -15 -12 -43 8
-36 7 3 16 1 20 -5 5 -10 -7 -15 -27 -12 -5 0 -8 -4 -8 -9 0 -7 -8 -6 -22 1
-13 7 -25 13 -28 13 -3 1 -5 11 -5 24 1 12 -4 21 -10 19 -5 -2 -9 -19 -8 -38
1 -19 0 -28 -3 -21 -3 6 -15 12 -27 12 -21 -1 -21 -1 2 -14 13 -7 32 -11 42
-9 10 3 26 2 36 -1 14 -6 12 -9 -13 -22 -33 -18 -104 -27 -104 -14 0 16 42 23
52 9 8 -11 9 -11 5 1 -2 9 -14 14 -28 12 -13 -1 -35 -3 -49 -4 -14 -2 -28 -7
-32 -13 -5 -6 -13 -4 -23 6 -15 14 -15 17 -1 22 11 4 13 1 9 -11 -4 -13 -3
-14 6 -6 13 12 5 44 -11 44 -5 0 -6 -5 -2 -12 5 -7 2 -9 -9 -5 -9 3 -18 1 -21
-6 -3 -7 -5 -6 -5 4 -1 8 4 20 10 26 8 8 8 13 0 17 -6 4 -11 1 -11 -6 0 -8 -6
-23 -14 -33 -13 -18 -15 -18 -40 -2 -14 10 -26 13 -26 7 0 -5 -8 -10 -17 -10
-13 0 -14 3 -5 12 7 7 11 21 11 33 -1 19 -2 19 -6 1 -3 -11 -10 -24 -17 -30
-16 -16 -55 -13 -66 4 -7 10 -10 11 -10 2 0 -16 -43 -33 -51 -20 -3 5 -9 3
-12 -6 -4 -9 -2 -16 4 -16 6 0 9 -6 6 -14 -4 -9 1 -17 11 -19 14 -4 14 -5 -2
-6 -10 0 -25 7 -33 17 -14 16 -14 16 -9 0 3 -10 1 -20 -4 -23 -6 -3 -15 -16
-21 -27 -10 -18 -9 -20 5 -15 27 11 18 -1 -14 -17 -26 -12 -30 -12 -30 0 0 8
-5 14 -11 14 -5 0 -8 4 -4 9 3 6 -3 14 -12 20 -11 6 -13 11 -5 11 7 0 10 5 7
10 -4 6 -2 17 5 25 10 12 7 12 -19 2 -37 -14 -38 -18 -6 -53 26 -28 33 -54 14
-54 -5 0 -7 5 -4 10 3 6 2 10 -3 10 -5 0 -15 11 -22 25 -12 23 -30 25 -30 4 0
-6 5 -7 10 -4 6 3 10 0 10 -8 0 -24 -30 -28 -52 -8 -22 21 -50 18 -41 -5 4
-10 0 -12 -11 -8 -14 6 -21 -5 -17 -28 0 -4 -10 -10 -24 -14 -14 -3 -25 -10
-25 -15 0 -5 -5 -9 -11 -9 -6 0 -9 6 -6 14 3 8 1 17 -6 20 -7 3 3 3 21 0 22
-3 31 -1 27 6 -3 5 -13 10 -22 10 -12 0 -13 3 -4 14 10 12 8 17 -8 26 -13 6
-21 7 -21 1 0 -5 8 -12 18 -14 15 -4 15 -5 0 -6 -9 0 -20 -10 -23 -22 -4 -12
-12 -18 -21 -15 -8 3 -14 1 -14 -4 0 -5 -7 -7 -15 -4 -8 4 -15 12 -15 20 0 8
-8 14 -17 15 -15 0 -15 2 2 8 25 10 36 5 28 -14 -3 -8 0 -15 6 -15 6 0 11 4
11 10 0 5 7 7 15 4 10 -4 15 0 15 14 0 11 -7 23 -16 26 -26 10 -29 7 -8 -9 26
-20 4 -19 -24 1 -16 11 -30 13 -49 7 -28 -10 -103 5 -103 19 0 14 -18 9 -23
-6 -4 -10 -1 -13 7 -10 8 3 17 1 21 -5 3 -7 -2 -11 -13 -11 -11 0 -22 -6 -25
-14 -9 -23 5 -27 26 -9 18 17 19 17 28 0 6 -10 14 -15 19 -12 5 3 11 1 15 -5
4 -6 11 -8 16 -4 6 4 6 11 -2 20 -6 7 -15 11 -20 8 -5 -3 -9 -1 -9 4 0 6 11 9
25 8 14 0 25 -6 25 -13 0 -6 2 -17 5 -25 7 -19 -53 -21 -72 -3 -8 8 -20 15
-26 15 -8 0 -7 -4 1 -12 25 -25 11 -26 -30 -2 -24 13 -50 27 -58 30 -8 4 -23
16 -33 28 -15 17 -18 17 -13 4 6 -21 -13 -24 -34 -5 -9 8 -9 4 2 -14 11 -17
13 -30 7 -40 -7 -11 -10 -10 -15 8 -5 20 -44 30 -44 12 0 -4 -15 -7 -34 -7
-27 0 -33 3 -29 15 5 13 3 14 -18 2 -27 -14 -69 -13 -84 3 -7 8 -6 9 3 4 6 -4
12 -2 12 4 0 8 -6 9 -17 4 -10 -4 -30 -7 -45 -6 -16 1 -28 -4 -28 -9 0 -6 7
-8 16 -5 8 3 12 2 9 -4 -3 -6 -13 -10 -20 -10 -9 0 -12 -6 -9 -15 4 -8 9 -13
13 -11 16 10 91 14 91 5 0 -5 5 -9 11 -9 5 0 8 4 5 9 -3 5 3 11 14 14 11 3 20
1 20 -4 0 -5 7 -9 16 -9 14 0 14 -1 0 -16 -9 -8 -16 -20 -16 -26 0 -6 -8 -5
-17 4 -32 27 -54 30 -60 8 -3 -11 -10 -17 -15 -14 -5 3 -7 13 -3 23 4 12 3 13
-5 5 -14 -14 -60 -6 -60 11 0 7 -7 16 -16 19 -24 9 -28 7 -15 -8 9 -11 8 -15
-5 -20 -22 -8 -26 -8 -19 3 3 5 1 12 -5 16 -5 3 -10 15 -10 26 0 11 5 17 10
14 6 -4 7 -11 4 -17 -4 -6 -2 -8 3 -5 6 4 13 15 15 24 4 14 -2 18 -25 19 -28
1 -29 0 -23 -37 3 -21 2 -40 -4 -44 -16 -10 -12 -28 5 -22 8 4 17 2 20 -3 4
-6 -4 -10 -17 -10 -17 0 -20 -2 -9 -9 8 -5 19 -8 25 -6 39 12 66 14 66 6 0 -5
-13 -12 -30 -16 -16 -4 -30 -11 -30 -16 0 -5 -10 -5 -24 1 -13 5 -32 7 -42 5
-11 -2 -29 -4 -42 -4 -19 -1 -22 -5 -17 -23 5 -19 3 -18 -10 5 -9 15 -22 27
-30 27 -8 0 -12 6 -9 14 4 10 -2 12 -22 8 -16 -3 -25 -1 -21 5 8 13 42 10 61
-6 12 -10 16 -10 16 -2 0 8 6 7 16 -3 19 -19 26 -20 42 -4 7 7 12 8 12 4 0 -5
7 -3 14 4 11 8 12 18 6 35 -7 19 -5 27 7 33 12 7 13 11 3 17 -7 4 -15 3 -19
-2 -3 -5 -16 -10 -27 -10 -17 -1 -21 3 -16 19 3 11 -1 24 -9 29 -24 15 7 26
58 21 32 -3 43 -1 39 7 -4 6 0 11 8 11 9 0 16 -4 16 -10 0 -5 5 -10 10 -10 7
0 7 6 1 19 -10 17 -29 20 -81 11 -3 0 2 -5 10 -10 22 -14 -6 -13 -33 1 -16 9
-22 9 -25 0 -2 -6 -10 -11 -18 -11 -18 0 -18 -26 0 -33 23 -9 8 -46 -16 -39
-15 3 -16 7 -7 13 14 8 13 9 -31 22 -21 6 -50 -11 -50 -28 0 -8 -5 -15 -11
-15 -6 0 -9 12 -7 28 2 17 -2 26 -9 25 -7 -2 -10 4 -7 12 5 11 2 13 -10 9 -9
-3 -16 -13 -16 -20 0 -11 -5 -12 -17 -6 -10 5 -32 8 -50 6 -32 -4 -52 9 -33
21 15 10 12 35 -5 35 -8 0 -15 5 -15 10 0 6 -4 10 -10 10 -5 0 -7 -7 -4 -15 4
-8 -1 -17 -10 -21 -20 -8 -21 -34 -2 -34 8 0 18 -5 22 -12 5 -8 -4 -9 -34 -5
-37 6 -40 5 -35 -14 5 -19 3 -20 -12 -11 -14 7 -23 6 -34 -5 -19 -19 -29 1
-11 22 10 12 8 12 -14 2 -18 -8 -24 -17 -20 -29 4 -13 1 -16 -9 -12 -21 8 -14
34 13 49 15 8 19 15 11 19 -6 4 -11 2 -11 -3 0 -6 -7 -11 -15 -11 -8 0 -15 -4
-15 -10 0 -5 -7 -10 -16 -10 -12 0 -14 4 -6 13 5 7 6 21 1 32 -4 11 -8 16 -9
10 -5 -35 -10 -49 -19 -58 -8 -8 -11 -8 -11 1 0 7 -5 12 -11 12 -5 0 -7 -4 -4
-10 3 -5 2 -10 -2 -10 -5 0 -14 -10 -22 -21 -11 -18 -11 -23 1 -31 10 -8 10
-9 -2 -5 -8 2 -15 10 -15 18 -1 8 -6 24 -13 37 -7 12 -9 22 -5 22 4 0 -5 7
-21 15 -15 8 -32 12 -37 9 -5 -3 -9 0 -9 6 0 8 9 10 26 6 17 -5 23 -3 19 4 -9
14 -55 13 -56 -2 -3 -28 -4 -34 -16 -53 -6 -11 -15 -16 -19 -12 -5 5 -2 12 6
17 8 5 11 12 7 16 -4 4 -14 -1 -23 -12 -15 -18 -15 -18 -10 6 3 14 6 28 6 32
0 4 6 5 14 2 8 -3 17 -1 21 5 4 7 -3 11 -18 11 -14 0 -27 -7 -31 -15 -4 -12
-11 -13 -32 -5 -15 6 -29 8 -32 5 -3 -3 0 -5 6 -5 7 0 11 -5 10 -12 -2 -6 8
-17 22 -25 24 -12 24 -13 3 -13 -12 0 -24 4 -27 8 -3 5 -20 9 -37 10 -17 0
-37 6 -43 13 -8 9 -2 10 29 6 22 -3 34 -3 28 0 -19 7 -16 20 9 45 14 14 19 16
15 6 -8 -22 2 -29 25 -17 11 6 56 12 101 14 107 4 105 4 85 16 -20 11 -24 45
-7 51 14 5 0 38 -16 38 -8 0 -17 -5 -21 -12 -5 -8 -1 -9 12 -5 14 5 12 2 -6
-13 -20 -16 -22 -20 -7 -20 10 0 17 -8 17 -19 0 -17 -7 -19 -50 -18 -51 1 -51
1 -54 52 -1 12 -9 21 -21 22 l-20 3 20 -9 c11 -5 15 -10 8 -10 -7 -1 -10 -8
-7 -18 5 -15 4 -15 -4 -3 -9 12 -14 11 -33 -5 -12 -11 -19 -14 -15 -7 9 15 1
15 -23 0 -20 -12 -51 -5 -51 11 0 6 13 8 32 4 27 -5 30 -4 25 11 -4 9 -3 15 1
12 4 -3 14 4 21 16 7 11 8 17 2 13 -6 -3 -11 -1 -11 4 0 6 7 11 15 11 8 0 15
5 15 10 0 21 -43 -1 -85 -44 -20 -20 -40 -31 -63 -32 -21 -1 -32 3 -29 10 7
18 -17 34 -38 25 -19 -7 -18 -8 3 -8 12 -1 22 -7 22 -16 0 -11 -5 -12 -24 -5
-27 10 -36 5 -36 -22 0 -21 10 -23 29 -5 11 10 13 9 8 -5 -4 -12 -1 -16 14
-15 10 1 19 4 19 7 0 4 7 7 15 7 8 0 15 -8 15 -18 0 -10 5 -21 10 -24 6 -3 10
-12 10 -18 -1 -7 -9 -2 -20 11 -15 18 -26 22 -50 19 -16 -3 -32 -1 -36 4 -3 5
-12 9 -21 9 -12 0 -13 -3 -3 -15 6 -8 9 -19 5 -25 -3 -5 -2 -10 4 -10 5 0 13
5 16 10 11 17 23 11 18 -9 -5 -22 -35 -18 -55 7 -10 12 -10 14 0 8 18 -11 15
9 -4 25 -13 10 -17 10 -24 0 -6 -11 -15 -11 -39 -3 -18 7 -29 7 -26 2 4 -6 -1
-10 -9 -10 -9 0 -16 6 -16 14 0 10 -8 12 -32 7 -40 -8 -46 -24 -14 -38 19 -9
22 -17 18 -39 -4 -22 -2 -26 12 -21 27 10 18 -9 -10 -22 -23 -10 -26 -9 -21 4
4 10 1 15 -10 15 -14 0 -14 2 3 14 16 12 17 17 6 28 -11 11 -12 10 -7 -4 5
-13 2 -15 -14 -11 -11 3 -19 10 -18 15 1 6 -4 13 -12 16 -8 3 -11 0 -7 -7 4
-6 2 -11 -3 -11 -6 0 -11 -7 -11 -15 0 -9 6 -12 15 -9 8 4 15 1 15 -5 0 -17
-28 -13 -38 5 -7 13 -11 14 -17 4 -4 -7 -3 -15 3 -19 6 -4 5 -11 -4 -19 -12
-11 -14 -8 -14 14 0 19 -4 25 -15 20 -9 -3 -15 0 -15 9 0 8 5 15 12 15 6 0 25
11 42 23 17 13 38 26 46 29 7 2 10 7 5 10 -6 3 -70 -34 -143 -82 -127 -83
-186 -127 -135 -101 12 6 30 8 40 5 15 -5 15 -4 3 5 -9 6 -10 11 -3 11 6 0 19
3 29 7 13 5 16 3 11 -10 -4 -12 -1 -17 11 -17 13 0 12 -4 -8 -20 -14 -11 -31
-20 -39 -20 -11 0 -10 4 4 13 16 13 15 14 -15 15 -24 1 -30 -2 -21 -11 6 -6
11 -14 11 -18 0 -10 -47 -4 -62 9 -10 8 -24 3 -53 -17 -22 -15 -48 -30 -59
-34 -11 -5 -16 -13 -12 -23 5 -13 2 -15 -14 -11 -10 3 -18 0 -17 -5 1 -6 -4
-13 -12 -16 -8 -3 -11 0 -7 7 4 6 -19 -6 -52 -26 -48 -31 -58 -41 -49 -53 9
-12 9 -13 -3 -2 -22 19 -37 15 -79 -23 -21 -19 -41 -35 -44 -35 -3 0 -52 -31
-109 -68 -56 -38 -116 -77 -133 -87 -27 -17 -28 -19 -10 -27 15 -6 13 -7 -8
-3 -20 4 -34 -1 -52 -19 -13 -13 -35 -28 -47 -31 -41 -13 -108 -60 -103 -72 3
-8 -4 -13 -18 -13 -22 0 -57 -20 -86 -48 -7 -7 -27 -16 -43 -19 -16 -3 -32
-12 -35 -19 -2 -7 -11 -10 -19 -7 -8 3 -14 -1 -14 -8 0 -13 -60 -58 -77 -60
-19 -1 -118 -77 -115 -88 1 -7 -2 -9 -9 -6 -9 6 -55 -10 -69 -25 -3 -3 -18
-14 -33 -23 -16 -10 -36 -25 -45 -33 -23 -21 -235 -154 -245 -154 -4 0 -18 -9
-30 -21 -12 -11 -42 -29 -65 -40 -24 -11 -42 -22 -40 -24 1 -1 98 -6 213 -9
116 -4 247 -8 293 -11 76 -4 82 -3 70 12 -12 15 -10 15 13 0 21 -14 50 -17
170 -16 79 1 150 6 157 11 8 7 12 7 12 0 0 -7 20 -10 58 -7 66 5 53 5 201 5
114 1 136 4 126 20 -6 9 25 23 33 15 3 -3 0 -5 -6 -5 -7 0 -12 -7 -12 -15 0
-12 14 -15 65 -15 37 0 65 4 65 10 0 6 5 10 11 10 5 0 7 -4 4 -10 -9 -15 98
-13 113 2 9 9 12 9 12 0 0 -19 1230 -14 1237 4 3 8 9 14 14 14 4 0 6 -7 3 -15
-5 -12 11 -14 105 -14 66 0 111 4 111 10 0 6 6 6 18 0 12 -6 241 -8 618 -6
329 2 754 3 944 4 190 0 379 1 420 2 41 1 84 2 95 2 226 -4 279 -3 291 9 2 3
7 106 9 229 6 291 14 418 25 440 7 11 7 20 0 24 -6 3 -6 15 0 29 5 13 7 26 5
28 -8 7 -7 61 1 228 5 91 9 209 9 262 0 54 4 98 8 98 5 0 5 5 1 11 -3 6 -17 9
-30 6 -15 -2 -24 1 -24 8 0 25 -25 36 -46 20 -25 -19 -31 -19 -37 5 -3 11 0
20 6 20 6 0 7 3 4 6 -4 4 -14 1 -24 -7 -9 -8 -14 -9 -10 -3 4 7 -1 15 -10 19
-10 3 -19 2 -21 -4 -2 -7 -11 -6 -25 2 -29 16 -36 27 -30 44 8 19 0 16 -15 -7z"/>
<path d="M5439 5941 c-1 -6 -3 -15 -4 -21 -1 -5 -3 -13 -4 -17 -1 -5 -6 0 -12
9 -12 21 -42 12 -34 -11 3 -11 -5 -22 -24 -34 -27 -16 -29 -16 -46 3 -18 20
-8 29 11 10 5 -5 15 -5 22 -1 10 6 4 10 -19 15 -18 3 -38 1 -45 -5 -11 -9 -18
-8 -29 1 -13 11 -14 10 -10 -2 8 -21 -22 -31 -33 -12 -6 11 -14 12 -33 5 -13
-5 -18 -10 -11 -10 24 -2 12 -18 -13 -18 -20 0 -23 2 -14 13 8 10 6 13 -8 11
-15 -1 -18 -7 -15 -25 3 -15 10 -21 19 -18 18 7 6 -14 -19 -32 -10 -7 -18 -19
-18 -25 0 -7 5 -4 11 6 5 9 19 17 30 17 12 0 17 -4 14 -11 -4 -6 -9 -8 -12 -5
-3 3 -11 0 -17 -7 -15 -14 -146 -17 -146 -3 0 5 17 11 37 13 76 5 100 16 63
28 -15 5 -26 2 -31 -6 -6 -9 -9 -10 -9 -2 0 6 7 19 16 27 14 15 14 16 -1 16
-12 0 -15 5 -11 18 5 15 4 15 -6 2 -15 -18 -58 -26 -58 -11 0 6 -4 11 -9 11
-5 0 -8 -12 -6 -27 3 -32 -13 -47 -32 -31 -9 7 -13 7 -13 -1 0 -19 -16 -12
-28 12 l-11 22 2 -25 c2 -21 -3 -25 -28 -28 -16 -1 -40 -8 -52 -14 -15 -7 -30
-7 -52 0 -26 9 -31 8 -36 -9 -4 -13 -12 -18 -21 -15 -9 4 -12 1 -9 -5 4 -6 14
-7 24 -4 18 8 81 12 81 6 0 -2 -7 -9 -17 -16 -16 -12 -9 -40 8 -30 5 4 9 -1 9
-9 0 -19 40 -32 50 -17 7 12 40 5 40 -9 0 -5 10 -6 23 -4 12 2 16 1 7 -2 -8
-4 -22 -15 -31 -26 -18 -19 -59 -25 -59 -7 0 6 9 8 20 4 14 -4 20 -2 20 8 0 9
-10 14 -27 13 -22 -1 -28 -6 -29 -23 -1 -13 3 -23 8 -23 5 0 6 -4 3 -10 -7
-12 -26 -14 -24 -2 1 4 0 10 -1 15 -1 4 -3 12 -4 18 -2 17 -66 49 -96 49 -30
0 -50 -17 -50 -42 0 -10 -7 -18 -15 -18 -8 0 -15 6 -15 14 0 8 -11 17 -25 20
-14 4 -25 11 -25 16 0 14 28 12 32 -2 5 -15 28 -1 28 16 0 8 -10 16 -22 20
-17 4 -19 8 -10 14 7 5 10 19 8 33 -7 36 -7 36 -15 14 -5 -12 -4 -23 3 -28 7
-6 6 -7 -4 -4 -9 2 -14 14 -12 28 1 17 0 20 -7 10 -6 -9 -18 -12 -32 -8 -23 6
-23 5 -5 -8 11 -8 23 -15 27 -15 4 0 10 -7 13 -16 5 -13 1 -15 -20 -10 -15 4
-23 3 -20 -3 7 -11 -22 -24 -35 -15 -14 8 -11 24 6 24 19 0 19 19 0 26 -8 4
-13 10 -10 14 3 5 -6 7 -21 4 -18 -3 -23 -1 -18 7 4 8 3 9 -4 5 -8 -5 -9 -13
-2 -25 5 -10 6 -22 2 -26 -4 -5 -1 -5 6 -1 8 5 13 3 11 -5 -3 -28 1 -37 23
-42 12 -3 29 -2 39 4 14 7 19 5 24 -11 3 -11 3 -25 -1 -31 -5 -8 3 -10 24 -7
24 3 29 2 21 -8 -17 -20 -56 -22 -72 -3 -14 15 -13 18 4 22 21 6 26 27 6 27
-7 0 -19 -6 -26 -12 -11 -10 -14 -10 -18 0 -3 6 -9 12 -15 12 -6 0 -17 8 -24
18 -12 16 -13 15 -14 -6 0 -13 -4 -20 -10 -17 -6 4 -8 10 -5 15 3 4 -2 13 -10
20 -8 7 -13 16 -10 19 2 4 -13 5 -33 1 -27 -4 -37 -11 -36 -23 2 -18 -5 -21
-30 -11 -9 3 -13 10 -10 15 3 5 1 9 -5 9 -5 0 -13 -5 -16 -11 -4 -6 -13 -8
-21 -5 -8 3 -17 -1 -20 -9 -4 -8 -11 -12 -16 -9 -6 4 -6 -1 0 -13 7 -12 7 -25
1 -34 -7 -11 -9 -11 -9 0 0 8 -6 11 -15 7 -13 -5 -14 -2 -4 16 10 18 9 20 -6
15 -9 -4 -18 -7 -21 -7 -2 0 -1 -6 2 -14 3 -8 1 -17 -5 -21 -7 -4 -11 4 -11
21 0 15 -3 24 -7 20 -5 -4 -8 -17 -8 -29 0 -11 -6 -22 -14 -25 -8 -3 -11 0 -7
6 3 6 0 12 -6 15 -10 3 -8 10 6 26 33 37 17 28 -50 -28 -6 -5 -10 -23 -9 -40
2 -30 -8 -41 -20 -22 -3 5 -1 12 5 16 17 10 11 25 -9 25 -11 0 -22 6 -24 13
-4 8 -8 9 -14 1 -4 -6 -19 -10 -33 -9 -14 1 -32 -1 -41 -6 -8 -4 -22 -3 -30 2
-13 8 -6 13 14 10 12 -2 8 17 -5 22 -7 2 -1 4 14 3 14 0 24 -5 21 -9 -3 -5 5
-7 18 -5 12 1 24 9 27 17 3 8 0 11 -7 7 -6 -4 -11 -1 -11 8 0 9 6 16 14 16 8
0 18 5 22 11 5 8 -1 10 -19 7 -16 -3 -31 0 -38 8 -14 17 -42 18 -37 2 3 -7 14
-14 26 -16 24 -4 29 -17 10 -28 -6 -4 -14 -2 -16 4 -2 7 -10 12 -18 12 -8 0
-14 5 -14 10 0 19 -15 10 -27 -15 -9 -21 -8 -27 5 -36 15 -9 15 -10 -1 -5 -10
3 -28 6 -40 6 -20 0 -20 2 7 23 l29 24 -34 7 c-19 4 -28 10 -21 13 6 2 12 11
12 20 0 20 25 43 46 43 16 0 16 -1 -2 -15 -13 -10 -15 -14 -5 -15 8 0 22 7 31
15 20 18 50 10 50 -14 1 -14 2 -14 15 3 12 15 18 16 42 7 l28 -11 -28 5 c-21
4 -28 2 -25 -7 8 -22 75 -28 93 -8 22 24 19 33 -10 28 -13 -3 -22 -1 -19 3 3
5 11 9 17 9 7 0 18 9 25 20 10 17 10 21 -3 26 -8 3 -12 11 -8 18 3 6 -2 3 -13
-6 -35 -31 -102 -3 -104 42 0 13 -2 13 -9 1 -6 -9 -4 -19 5 -28 20 -21 17 -36
-6 -30 -17 4 -20 2 -15 -14 7 -22 6 -23 -32 -8 -25 10 -26 12 -9 18 12 5 16
10 9 14 -6 4 -17 2 -25 -5 -7 -7 -21 -19 -31 -27 -16 -13 -17 -12 -7 10 6 13
13 32 16 42 4 9 15 17 25 17 10 0 21 5 25 12 4 6 3 8 -3 5 -18 -11 -103 -17
-103 -7 0 5 7 7 15 4 8 -4 15 -2 15 3 0 5 -18 9 -39 9 -22 -1 -37 -4 -35 -7 2
-4 -3 -12 -10 -18 -12 -10 -13 -9 -9 7 3 12 -1 22 -11 25 -9 4 -16 2 -16 -4 0
-6 -8 -8 -18 -5 -13 4 -19 1 -19 -9 0 -9 6 -14 14 -11 7 3 13 1 13 -3 0 -5 -6
-12 -12 -14 -7 -3 -3 -6 9 -6 12 -1 25 -5 28 -11 3 -6 -1 -7 -9 -4 -20 8 -20
-3 0 -23 14 -14 16 -14 29 3 7 10 11 22 9 26 -3 5 0 8 5 8 33 0 -4 -52 -46
-64 -18 -6 -20 -4 -16 14 6 22 -8 25 -42 9 -18 -9 -18 -9 3 -5 15 3 22 0 19
-7 -7 -22 -42 -13 -45 11 -3 22 4 26 48 24 8 -1 3 4 -12 10 -23 10 -26 16 -21
40 5 25 3 28 -20 28 -14 0 -29 -5 -33 -12 -5 -7 -2 -9 9 -5 18 7 29 -14 16
-34 -5 -8 -9 -9 -9 -3 0 7 -7 15 -16 18 -8 3 -12 2 -9 -4 3 -6 -1 -10 -9 -10
-9 0 -16 7 -16 15 0 18 -11 19 -29 3 -11 -11 -13 -10 -8 4 3 10 0 19 -9 22
-25 10 -41 7 -24 -4 9 -6 10 -10 3 -10 -7 0 -16 8 -22 18 -9 16 -10 16 -16 0
-8 -19 -65 -26 -65 -8 0 5 -16 9 -35 8 -19 -1 -35 -5 -35 -10 0 -4 -5 -8 -11
-8 -5 0 -8 4 -4 9 3 5 1 12 -5 16 -5 3 -10 -1 -10 -10 0 -14 -8 -16 -39 -13
-31 3 -37 1 -29 -9 6 -7 14 -11 18 -8 5 3 11 -1 13 -7 4 -10 6 -10 6 0 1 7 14
12 33 12 35 0 31 -12 -5 -15 -12 -2 -21 -7 -20 -13 1 -5 -7 -8 -17 -5 -11 3
-20 9 -20 14 0 5 -12 6 -27 3 -23 -6 -25 -4 -20 12 7 18 6 18 -9 -1 -14 -18
-16 -18 -24 -4 -6 11 -18 15 -35 11 -18 -3 -25 -1 -23 9 3 16 18 29 33 29 6 0
3 -4 -5 -10 -8 -5 -11 -12 -8 -16 4 -3 14 1 23 10 12 12 13 16 3 16 -10 0 -9
3 2 11 13 10 13 10 0 7 -140 -42 -138 -41 -134 -63 3 -17 -2 -25 -19 -30 -12
-4 -26 -7 -31 -6 -4 1 -24 -7 -43 -19 -39 -23 -43 -24 -43 -11 0 5 10 13 21
16 17 6 19 9 8 16 -11 7 -9 9 6 10 11 1 29 1 40 1 11 -1 26 7 33 19 12 18 11
20 -5 17 -10 -2 -17 -10 -15 -17 2 -8 -3 -11 -12 -8 -14 6 -55 -4 -101 -23
-11 -5 -44 -16 -74 -25 -33 -11 -49 -20 -41 -25 10 -6 10 -9 0 -15 -7 -4 -15
-3 -19 3 -7 12 -73 -1 -96 -17 -5 -4 -37 -16 -70 -25 -33 -10 -100 -33 -150
-51 -49 -18 -121 -43 -160 -55 -38 -12 -112 -38 -164 -56 -52 -19 -100 -34
-107 -34 -8 0 -11 -6 -8 -15 4 -8 2 -15 -4 -15 -6 0 -12 5 -14 11 -2 7 -26 2
-65 -15 -34 -14 -180 -66 -325 -115 -268 -91 -524 -180 -703 -245 -55 -20
-134 -49 -175 -63 -41 -14 -79 -29 -85 -33 -5 -4 -22 -10 -37 -14 -15 -3 -40
-11 -55 -18 -15 -6 -35 -13 -43 -14 -15 -2 -65 -19 -105 -35 -11 -4 -60 -22
-110 -38 -50 -17 -117 -41 -150 -55 l-60 -24 -3 -184 -2 -183 911 0 c721 0
913 3 916 13 3 6 9 12 14 12 5 0 9 -6 9 -12 0 -18 102 -17 124 1 14 12 16 12
11 0 -4 -12 26 -14 187 -12 258 3 342 3 903 4 264 0 527 1 585 3 l105 2 67 45
c101 67 107 71 86 65 -10 -3 -18 -1 -18 4 0 5 15 10 33 12 17 2 31 8 30 14 -1
7 6 10 18 7 13 -4 25 1 34 14 7 11 32 28 55 38 27 12 39 23 35 33 -3 10 0 12
10 9 18 -7 30 9 13 17 -7 3 -3 3 10 0 14 -3 34 1 50 13 35 23 51 33 98 61 22
12 66 40 99 62 33 21 102 64 153 96 74 45 90 60 81 70 -8 10 -8 14 0 14 6 0
11 -4 11 -10 0 -16 16 -12 64 18 32 19 44 32 40 44 -3 9 0 19 5 23 7 3 8 0 5
-9 -6 -17 7 -22 20 -8 4 4 11 7 15 7 4 0 42 22 84 49 62 39 75 51 66 62 -7 9
-8 14 -1 14 6 0 12 -6 15 -12 3 -10 12 -7 33 8 16 11 36 23 44 27 8 4 29 16
45 27 17 11 49 30 73 42 23 12 42 26 42 30 0 4 5 8 12 8 6 0 26 11 44 25 18
14 38 25 44 25 6 0 8 10 4 25 -5 19 -2 25 11 25 14 0 15 -3 5 -15 -15 -17 -7
-19 21 -5 10 6 19 18 19 26 0 8 4 12 10 9 20 -12 254 130 243 148 -3 6 -1 7 5
3 7 -4 31 4 54 18 l43 26 -33 0 c-18 0 -31 -4 -28 -9 3 -5 -2 -11 -12 -13 -11
-3 -19 0 -19 8 0 7 4 11 9 8 4 -3 8 3 8 12 0 10 3 14 7 11 3 -4 12 -2 20 4 7
7 13 7 13 2 0 -6 10 -10 23 -9 30 2 97 28 97 39 0 4 -4 6 -9 3 -4 -3 -6 5 -4
19 5 23 33 44 33 24 0 -6 4 -8 9 -5 5 4 11 2 13 -2 1 -4 21 2 43 15 22 12 32
23 23 23 -9 0 -20 -5 -23 -10 -4 -6 -23 -11 -43 -10 -20 0 -56 -2 -79 -4 -45
-4 -57 10 -29 33 11 9 15 7 20 -11 4 -13 10 -18 12 -11 3 7 12 9 20 6 8 -3 14
0 14 6 0 6 -7 11 -15 11 -17 0 -20 16 -6 25 5 3 17 -5 25 -17 12 -16 16 -18
16 -7 0 11 10 16 30 16 17 0 30 -4 30 -9 0 -4 -9 -8 -21 -8 -11 0 -17 -5 -14
-10 4 -7 18 -4 38 6 54 29 66 34 74 34 5 0 1 -5 -7 -10 -8 -5 -10 -10 -3 -10
6 0 41 20 78 44 47 31 62 45 51 49 -10 4 -16 1 -16 -7 0 -7 -18 -18 -40 -25
-22 -7 -38 -16 -35 -21 4 -6 -1 -10 -9 -10 -10 0 -13 6 -9 16 4 12 2 15 -8 12
-8 -3 -13 -11 -11 -17 1 -7 -1 -10 -6 -7 -5 3 -23 1 -41 -4 -34 -9 -40 0 -15
25 20 20 10 33 -11 15 -12 -10 -19 -10 -27 -2 -9 9 -9 12 2 12 7 0 11 3 7 6
-3 3 -15 -1 -27 -9 -18 -12 -18 -16 -6 -26 8 -7 21 -9 28 -5 9 5 8 2 -1 -10
-14 -16 -16 -16 -27 -2 -14 20 -23 20 -43 2 -9 -7 -26 -17 -38 -20 -18 -6 -23
-3 -23 9 0 13 -6 16 -24 11 -19 -5 -25 -1 -31 17 -4 12 -7 27 -6 33 1 7 -8 14
-19 17 -17 4 -18 2 -9 -14 7 -15 6 -19 -6 -19 -8 0 -15 -5 -15 -11 0 -6 9 -9
20 -6 13 3 20 0 20 -10 0 -9 -6 -13 -13 -10 -8 3 -20 1 -28 -4 -12 -8 -12 -11
1 -20 12 -9 12 -10 -4 -5 -10 4 -24 1 -32 -4 -9 -9 -15 -6 -23 8 -13 24 -3 36
17 19 13 -10 15 -9 9 5 -4 12 -2 15 9 11 7 -3 14 0 14 6 0 6 -7 12 -15 12 -8
1 -19 3 -25 4 -5 1 -17 3 -26 4 -11 1 -13 7 -8 23 6 21 6 21 -11 5 -10 -10
-15 -20 -12 -24 3 -3 1 -11 -6 -18 -9 -10 -14 -8 -22 9 -7 12 -8 24 -2 27 5 4
4 9 -2 13 -6 4 -12 2 -12 -3z"/>
<path d="M8685 4442 c-1 -1 -27 -3 -58 -3 -42 -1 -57 -5 -63 -18 -4 -9 -7 -19
-6 -23 1 -3 -5 -9 -14 -12 -9 -4 -12 -2 -8 5 4 6 0 15 -7 20 -10 6 -8 9 9 9
12 0 22 5 22 10 0 16 -712 3 -722 -13 -6 -9 -8 -9 -8 1 0 11 -100 14 -480 13
-14 0 -203 0 -420 0 -300 -1 -396 -4 -402 -14 -6 -9 -10 -9 -17 2 -5 8 -16 11
-25 8 -8 -3 -18 -2 -21 4 -4 5 -11 7 -16 3 -6 -3 -121 -6 -257 -6 -136 -1
-255 -5 -266 -11 -12 -6 -16 -6 -12 1 4 7 -13 10 -49 9 -30 -1 -55 -5 -55 -9
0 -13 -38 -9 -43 5 -3 9 -13 7 -41 -7 -22 -12 -35 -25 -32 -33 7 -18 3 -16
-24 7 l-24 20 24 -2 c12 -2 25 3 27 9 4 10 -57 13 -279 11 -156 -1 -293 -5
-305 -9 -12 -5 -24 -5 -27 0 -6 9 -610 6 -625 -4 -6 -3 -11 -1 -11 4 0 18 -87
13 -94 -5 -9 -23 -8 -27 10 -20 8 3 12 2 9 -4 -3 -6 -13 -10 -22 -10 -11 0
-14 6 -9 25 l6 25 -77 1 c-43 0 -99 2 -125 4 -30 3 -48 0 -48 -7 0 -7 -5 -6
-14 1 -9 8 -45 12 -98 10 -74 -2 -87 -5 -120 -31 -20 -15 -41 -28 -45 -28 -5
0 -24 -12 -43 -28 -19 -15 -52 -36 -72 -47 -21 -11 -38 -23 -38 -27 0 -5 -7
-8 -15 -8 -8 0 -15 -4 -15 -10 0 -5 -11 -10 -25 -10 -23 0 -25 -2 -14 -21 9
-18 8 -20 -9 -15 -11 4 -29 -1 -45 -14 -14 -11 -28 -20 -31 -20 -10 0 -76 -45
-76 -52 0 -3 10 -4 23 -1 20 4 20 3 4 -7 -10 -7 -29 -9 -43 -6 -22 6 -29 -1
-25 -26 0 -4 -5 -5 -12 -3 -6 3 -19 0 -27 -5 -13 -9 -13 -11 0 -21 12 -9 12
-10 -4 -5 -13 5 -39 -5 -77 -29 -31 -19 -62 -35 -68 -35 -6 0 -15 -9 -21 -20
-6 -11 -17 -20 -26 -20 -8 0 -17 -6 -20 -14 -6 -14 -49 -31 -71 -27 -7 1 -13
-4 -13 -12 0 -7 -8 -13 -18 -13 -9 1 -17 -3 -17 -9 0 -5 6 -9 12 -9 7 1 13 -2
13 -6 0 -5 -15 -10 -32 -12 -19 -2 -32 -8 -31 -15 2 -7 -3 -10 -11 -7 -7 3
-26 -6 -42 -19 -16 -13 -44 -29 -61 -36 -18 -8 -33 -17 -33 -22 0 -5 -4 -9
-10 -9 -10 0 -37 -20 -70 -51 -10 -9 -32 -25 -51 -35 -18 -11 -38 -22 -44 -27
-78 -58 -160 -104 -178 -101 -18 4 -18 3 -4 -3 16 -8 16 -9 -3 -26 -11 -9 -22
-17 -25 -17 -14 0 -83 -58 -77 -65 4 -5 1 -5 -5 -1 -15 8 -79 -19 -110 -47
-13 -11 -26 -17 -30 -14 -3 4 -11 -3 -17 -16 -7 -14 -26 -26 -52 -32 -25 -6
-39 -15 -37 -22 3 -7 -2 -13 -11 -13 -9 0 -16 -4 -16 -10 0 -5 -5 -10 -12 -10
-6 0 -26 -11 -44 -25 -18 -14 -37 -25 -42 -25 -6 0 -12 -3 -14 -8 -5 -13 -94
-82 -106 -82 -6 0 -13 -6 -15 -12 -4 -10 -8 -9 -16 2 -9 13 -11 12 -11 -3 0
-10 -4 -15 -10 -12 -6 3 -7 -1 -4 -9 4 -10 1 -16 -7 -16 -7 0 -44 -21 -82 -47
-37 -27 -83 -57 -101 -68 -50 -31 -89 -58 -108 -77 -10 -10 -24 -18 -32 -18
-8 0 -28 -12 -45 -26 -17 -14 -35 -23 -41 -19 -5 3 -10 -3 -10 -14 0 -12 -6
-21 -14 -21 -8 0 -16 -3 -18 -7 -5 -11 -66 -53 -77 -53 -5 0 -11 -3 -13 -7 -2
-5 -22 -20 -46 -36 -35 -22 -46 -26 -63 -17 -15 8 -24 8 -34 0 -8 -7 -19 -9
-24 -6 -5 4 -12 2 -15 -2 -3 -5 7 -9 22 -10 15 0 31 0 37 -1 10 -1 -59 -51
-70 -51 -3 0 -23 -11 -43 -25 -20 -14 -45 -25 -54 -25 -10 0 -18 -5 -18 -11 0
-6 -7 -8 -16 -5 -14 5 -15 4 -4 -9 11 -13 9 -15 -11 -16 -13 -1 -28 -1 -32 0
-9 2 -28 -17 -43 -44 -6 -10 -19 -23 -30 -29 -10 -6 -22 -15 -25 -19 -4 -5
-18 -10 -33 -10 -28 -2 -34 -12 -13 -20 6 -3 2 -6 -10 -6 -12 -1 -27 -9 -33
-18 -8 -13 -13 -14 -16 -5 -8 18 -22 15 -20 -5 1 -14 -6 -18 -31 -17 -21 1
-33 -3 -33 -11 0 -7 -6 -16 -12 -18 -10 -4 -10 -6 -1 -6 6 -1 15 4 18 9 3 6
14 10 23 10 13 0 12 -5 -8 -20 -16 -13 -36 -19 -53 -17 -15 2 -30 0 -33 -5 -3
-4 2 -8 10 -8 9 0 16 -4 16 -10 0 -5 -12 -10 -27 -10 -20 0 -24 -3 -14 -9 10
-7 5 -11 -17 -16 -18 -3 -36 -4 -42 0 -5 3 -10 -3 -10 -13 0 -12 -9 -22 -21
-25 -12 -3 -18 -10 -15 -16 4 -5 -3 -15 -15 -22 -18 -9 -21 -9 -17 2 3 8 0 19
-7 26 -17 16 -28 4 -13 -14 9 -11 7 -18 -6 -31 -16 -16 -18 -16 -32 2 -12 17
-14 17 -14 3 0 -11 -7 -15 -22 -12 -24 5 -51 -12 -42 -26 3 -5 -2 -9 -10 -9
-9 0 -16 -4 -16 -10 0 -5 5 -10 10 -10 6 0 10 -4 10 -9 0 -5 -9 -7 -20 -4 -11
3 -20 0 -20 -6 0 -6 5 -11 11 -11 5 0 8 -4 4 -10 -3 -5 -12 -7 -20 -3 -11 4
-13 1 -9 -11 3 -9 1 -16 -5 -16 -6 0 -11 5 -11 11 0 8 -4 8 -14 0 -11 -9 -15
-9 -19 1 -4 9 -6 8 -6 -3 -1 -9 -9 -20 -18 -24 -16 -7 -15 -9 7 -15 l25 -8
-27 -1 c-16 -1 -35 -11 -47 -27 -19 -24 -26 -24 -22 -1 3 21 -21 3 -30 -22 -6
-16 -17 -32 -25 -35 -12 -5 -14 -138 -14 -931 l0 -925 4447 0 c3459 0 4444 3
4435 12 -14 14 -16 38 -2 38 5 0 7 -7 4 -15 -4 -10 0 -15 15 -15 12 0 21 -4
21 -10 0 -6 68 -10 185 -10 l185 0 2 53 c0 28 1 58 1 65 -1 18 14 15 27 -5 9
-15 10 -14 4 7 -4 14 -11 26 -15 28 -5 2 -9 13 -9 23 0 11 -4 17 -10 14 -15
-9 -12 4 4 21 12 12 15 52 6 89 -1 6 -2 38 -1 71 1 51 4 62 20 67 15 3 17 11
13 33 l-6 29 -6 -25 c-4 -17 -8 -21 -14 -12 -4 6 -5 16 -2 21 3 4 7 45 8 90 3
77 4 81 26 81 30 0 24 24 -6 28 -31 5 -32 71 -2 79 11 3 17 9 14 14 -3 5 -9 7
-14 4 -13 -8 -21 41 -14 85 5 27 2 45 -7 57 -8 9 -9 14 -2 10 6 -4 13 -2 15 5
7 19 -4 68 -13 62 -5 -3 -9 0 -9 5 0 6 6 11 13 11 10 0 14 26 15 108 2 59 5
115 8 125 3 10 0 24 -6 32 -7 9 -8 15 -2 15 5 0 10 31 11 72 1 93 8 211 16
265 3 24 1 51 -5 63 -6 11 -7 20 -2 20 4 0 9 39 9 86 1 63 6 90 17 103 21 23
21 37 0 21 -13 -12 -15 -6 -10 59 3 40 10 79 16 86 8 9 8 14 0 17 -11 3 -12 9
-10 101 1 47 4 57 16 53 12 -4 12 -2 4 14 -6 11 -14 20 -19 20 -5 0 -6 11 -3
25 4 22 1 25 -22 25 -33 0 -42 -3 -38 -12 1 -5 -2 -8 -8 -8 -12 0 -13 10 -1
29 5 7 14 10 20 6 7 -4 23 -4 37 -1 20 5 23 11 18 33 -5 19 -2 30 11 40 12 8
14 13 6 13 -9 0 -11 8 -8 21 5 18 2 20 -19 16 -16 -3 -23 0 -21 7 2 6 10 11
18 11 9 0 15 13 17 38 2 21 -1 37 -7 37 -6 0 -11 5 -11 11 0 5 4 8 9 4 15 -9
21 27 12 67 -5 20 -6 39 -3 42 4 5 8 27 16 109 3 28 26 63 26 39 0 -7 5 -12
10 -12 6 0 10 7 10 16 0 12 -6 15 -25 10 -23 -6 -25 -4 -25 30 0 31 3 36 20
31 27 -7 25 10 -2 33 l-23 18 30 -4 c17 -2 25 -2 19 1 -7 3 -11 14 -9 23 1 9
0 11 -2 5 -10 -29 -24 -11 -17 22 4 25 3 35 -7 35 -8 0 -5 6 6 14 11 8 23 12
27 10 5 -3 8 0 8 6 0 7 -8 9 -19 5 -15 -4 -19 -1 -17 12 2 9 8 19 14 21 17 5
15 22 -3 22 -17 0 -21 55 -5 65 7 4 7 13 0 26 -12 22 -4 43 12 33 7 -5 8 -2 3
7 -12 19 -14 49 -3 49 5 0 2 14 -7 30 -9 17 -13 30 -9 30 4 0 1 6 -5 14 -9 11
-9 15 1 18 9 3 13 27 13 77 1 60 -2 70 -15 65 -22 -10 -89 -11 -83 -1 2 4 12
7 21 6 10 -1 26 -1 36 0 20 1 20 1 0 17 -19 15 -19 16 1 9 11 -4 24 -7 29 -8
4 -1 10 32 13 73 2 41 8 77 13 80 10 6 -3 66 -13 63 -21 -8 -17 0 11 23 18 15
32 31 32 37 0 6 -10 2 -22 -9 -12 -11 -18 -13 -13 -4 5 8 8 55 6 104 -1 67 -6
93 -16 99 -8 4 -15 13 -15 20 0 7 4 6 10 -3 16 -26 23 -2 27 92 6 153 5 181
-9 190 -10 6 -9 8 3 8 13 0 16 10 15 50 -1 27 -4 51 -7 54 -3 3 -52 5 -109 6
-58 0 -143 0 -190 1 -47 1 -91 1 -97 0 -21 -2 -32 -2 -196 1 -87 2 -160 2
-162 0z m-3718 -1971 c-20 -26 -41 -40 -59 -41 -10 0 -18 -6 -18 -13 0 -18
-62 -87 -78 -87 -6 0 -12 -4 -12 -9 0 -5 -26 -15 -57 -21 -32 -7 -67 -17 -78
-23 -23 -11 -105 -95 -105 -107 0 -4 -7 -13 -15 -20 -20 -16 -19 -34 1 -26 9
3 12 2 9 -5 -4 -5 -15 -7 -26 -4 -12 4 -19 2 -19 -7 -1 -15 -87 -108 -100
-108 -6 0 -15 -8 -22 -19 -9 -16 -17 -17 -45 -9 -27 7 -40 6 -59 -7 -25 -16
-25 -16 -14 5 13 24 4 43 -10 20 -11 -18 -151 -25 -161 -8 -6 9 -12 8 -23 -1
-15 -13 -134 -9 -157 4 -5 4 -88 7 -184 8 l-175 1 17 25 c30 47 150 159 174
163 15 2 24 10 24 20 0 14 89 108 102 108 2 0 21 11 41 25 20 14 45 25 54 25
10 0 18 4 18 9 0 5 10 11 23 14 118 27 165 38 182 43 45 11 163 26 205 26 25
0 67 4 93 10 62 13 209 23 364 24 110 1 121 -1 110 -15z m493 6 c150 -15 188
-21 217 -34 18 -8 39 -13 47 -10 8 3 29 2 47 -3 23 -7 35 -6 46 5 8 8 17 15
21 15 3 0 1 -5 -6 -12 -16 -16 -15 -28 3 -28 8 0 15 -4 15 -10 0 -5 7 -10 15
-10 9 0 18 -7 22 -16 3 -8 11 -13 18 -10 27 10 77 -59 64 -89 -4 -11 -8 -14
-8 -7 -1 7 -6 10 -11 7 -6 -4 -7 -13 -1 -23 6 -12 5 -24 -5 -37 -17 -23 -18
-52 -1 -59 6 -3 -4 -4 -23 -3 -25 1 -34 -2 -32 -12 1 -7 -4 -24 -13 -37 -19
-30 -19 -38 1 -30 9 3 12 2 9 -5 -4 -6 -14 -8 -22 -5 -9 4 -17 -1 -20 -13 -2
-10 -18 -28 -34 -40 -31 -23 -37 -49 -16 -70 10 -10 9 -11 -4 -6 -11 4 -25 -6
-44 -30 -16 -19 -35 -35 -42 -35 -7 0 -13 -4 -13 -10 0 -5 5 -10 11 -10 5 0 8
-4 4 -9 -3 -6 -15 -8 -26 -6 -11 2 -29 -5 -40 -16 -11 -11 -27 -18 -34 -15 -8
3 -20 -3 -28 -14 -7 -10 -31 -22 -52 -25 -22 -4 -46 -12 -52 -17 -7 -6 -41
-11 -75 -12 -35 -1 -69 -5 -76 -10 -7 -4 -27 -9 -45 -12 -76 -9 -117 -25 -117
-46 0 -5 9 -4 21 3 29 15 46 -3 24 -25 -9 -9 -12 -16 -6 -16 5 0 13 5 16 10
11 18 72 11 133 -16 50 -21 59 -29 54 -46 -2 -11 -11 -22 -18 -25 -15 -5 -19
-23 -6 -23 15 0 33 18 36 35 2 11 8 21 15 23 9 3 11 -8 8 -37 -3 -35 -1 -41
15 -41 11 0 17 -4 13 -10 -3 -5 -12 -7 -20 -3 -8 3 -15 0 -15 -7 0 -8 9 -11
25 -8 14 3 25 1 25 -4 0 -20 -53 -78 -71 -78 -11 0 -19 -7 -19 -15 0 -9 6 -12
18 -8 14 5 15 3 5 -8 -7 -7 -13 -20 -13 -28 0 -8 -7 -21 -15 -30 -23 -24 -79
-102 -95 -134 -8 -16 -22 -33 -32 -38 -10 -5 -18 -16 -18 -24 0 -8 -13 -27
-30 -42 -20 -17 -30 -36 -30 -55 0 -15 -4 -28 -10 -28 -5 0 -12 -11 -16 -25
-5 -18 -13 -25 -31 -25 -20 0 -24 -4 -20 -20 4 -16 -1 -21 -28 -26 -19 -3 -36
-13 -39 -21 -3 -8 -10 -12 -15 -9 -4 3 -17 -4 -27 -15 -17 -19 -19 -19 -25 -2
-7 16 -8 15 -8 -4 -1 -23 -33 -47 -54 -40 -7 2 -32 -6 -57 -18 -55 -27 -133
-47 -153 -39 -9 3 -26 -2 -39 -10 -14 -9 -27 -14 -30 -11 -3 3 -18 1 -33 -5
-42 -16 -188 -21 -197 -7 -5 8 -8 6 -8 -5 0 -14 -10 -18 -47 -20 -143 -4 -136
-5 -117 9 22 16 15 24 -14 16 -12 -3 -22 -12 -22 -19 0 -8 -8 -14 -17 -14 -10
0 -29 -3 -42 -7 -19 -5 -22 -3 -16 8 6 11 5 12 -6 2 -7 -7 -30 -13 -51 -13
-29 0 -36 3 -32 15 9 22 -12 18 -36 -7 -22 -24 -26 -18 -10 13 8 13 7 19 -1
19 -6 0 -13 -9 -16 -19 -6 -23 -29 -35 -39 -20 -4 6 -16 4 -32 -7 -15 -9 -24
-13 -19 -9 7 9 -20 45 -35 45 -4 0 -8 -7 -8 -15 0 -9 -9 -15 -24 -15 -30 0
-36 9 -25 35 4 12 8 14 8 6 1 -11 5 -10 15 5 11 14 11 21 3 26 -12 8 -9 9 15
12 7 0 13 8 14 16 0 24 15 50 25 45 5 -3 11 6 15 20 3 14 13 25 23 25 18 1 81
54 81 70 0 11 3 12 43 15 15 1 27 -2 27 -7 0 -4 9 -3 20 4 11 7 15 15 9 19 -6
3 12 9 40 13 28 4 51 10 51 15 0 5 14 14 30 21 20 8 36 27 49 54 21 48 70 106
88 106 7 0 13 11 13 25 0 19 5 25 23 26 12 0 17 3 10 5 -7 3 4 19 27 40 27 24
37 41 33 52 -6 15 -5 16 12 2 17 -14 18 -13 12 2 -4 11 7 32 34 61 21 25 39
51 39 58 0 7 10 23 22 36 13 14 23 38 24 58 1 32 -1 34 -24 28 -21 -5 -24 -3
-18 12 6 16 1 17 -39 13 -25 -3 -47 -2 -50 2 -2 3 -23 7 -47 8 -24 1 -55 4
-69 7 -14 3 -38 1 -54 -5 -25 -9 -26 -9 -15 5 10 13 9 15 -7 15 -11 0 -34 7
-52 16 -25 13 -30 19 -20 30 6 7 9 21 5 29 -3 10 1 18 12 22 17 6 32 19 73 58
18 18 35 20 196 22 125 1 178 5 184 14 4 7 18 13 31 14 42 3 88 17 88 27 0 6
7 7 16 4 19 -7 72 21 94 48 8 11 36 41 63 68 26 26 47 54 47 62 0 8 14 26 30
39 17 14 30 30 30 34 0 5 13 20 30 33 34 29 36 38 13 55 -16 12 -15 13 8 8 22
-4 27 -1 32 24 3 15 9 36 12 46 5 11 2 17 -8 17 -8 0 -20 7 -28 16 -8 9 -21
13 -35 10 -17 -5 -22 -3 -18 8 3 7 12 13 20 12 9 0 29 18 46 40 25 35 28 45
19 63 -10 17 -9 21 4 21 8 0 15 -6 15 -12 1 -7 8 -4 18 8 10 11 23 23 30 25
15 5 179 2 242 -4z m-2316 -1003 c9 -3 16 -14 16 -23 0 -10 3 -12 8 -5 9 13
45 27 37 15 -3 -5 -1 -12 5 -16 6 -3 13 1 16 9 6 16 44 23 44 8 0 -4 39 -7 88
-8 48 -1 125 -2 172 -4 47 -1 93 1 103 5 12 5 17 2 17 -8 0 -16 34 -18 58 -3
7 4 12 3 12 -2 0 -5 23 -9 52 -9 34 1 53 -4 56 -12 3 -10 6 -10 12 -2 4 7 18
12 31 12 74 -1 69 2 52 -32 -11 -23 -18 -27 -28 -19 -9 8 -14 6 -19 -5 -3 -8
-12 -15 -20 -15 -8 0 -18 -5 -22 -12 -5 -8 -2 -9 11 -4 15 5 16 4 5 -9 -7 -8
-15 -13 -19 -11 -4 3 -23 -15 -42 -39 -18 -24 -42 -46 -53 -49 -12 -3 -16 -10
-13 -20 5 -11 0 -16 -14 -16 -12 0 -17 -4 -13 -11 3 -6 -11 -30 -33 -52 -49
-51 -79 -97 -77 -117 1 -8 2 -21 3 -27 0 -7 8 -13 16 -13 12 0 13 -4 5 -19
-13 -25 -13 -31 0 -31 6 0 10 7 10 15 0 8 7 15 16 15 15 0 15 -2 0 -22 -9 -13
-24 -34 -33 -48 -72 -103 -115 -148 -148 -154 -19 -4 -35 -12 -35 -18 0 -6 9
-8 20 -5 11 3 20 1 20 -4 0 -16 -51 -23 -61 -8 -7 12 -12 12 -29 1 -14 -9 -26
-9 -39 -3 -10 6 -35 8 -56 6 -30 -4 -36 -2 -31 10 4 11 -1 15 -17 15 -22 0
-92 22 -102 32 -3 3 -26 -2 -51 -10 -37 -12 -47 -12 -57 -2 -9 10 -9 11 1 6 7
-4 12 -1 12 9 0 8 7 18 15 21 8 4 12 10 9 15 -3 5 -17 0 -31 -11 -30 -24 -59
-26 -67 -5 -3 8 -1 15 5 15 6 0 7 5 3 11 -4 8 -9 7 -15 -2 -8 -11 -13 -10 -28
8 -19 22 -31 21 -31 -4 0 -7 12 -18 26 -24 38 -14 25 -20 -18 -9 -28 8 -35 14
-31 29 3 10 -1 22 -8 27 -9 5 -11 2 -6 -9 3 -10 2 -17 -4 -17 -5 0 -12 7 -15
15 -4 10 -15 12 -33 9 -21 -5 -35 1 -56 20 -15 14 -34 26 -41 26 -7 0 -10 8
-7 20 4 15 1 19 -9 15 -17 -7 -43 19 -34 34 4 6 13 8 21 4 8 -3 15 0 15 6 0 6
-11 11 -25 11 -29 0 -45 28 -24 41 8 5 11 9 6 9 -4 0 -1 14 8 30 10 19 24 30
38 31 l22 0 -23 10 c-23 9 -23 9 -5 34 10 13 21 25 25 25 4 0 5 6 2 13 -2 7 4
13 16 14 14 1 20 -4 20 -18 0 -20 15 -26 24 -10 4 5 0 11 -6 14 -10 3 -10 7 1
21 12 14 12 16 -3 10 -23 -9 -20 4 7 27 27 24 98 59 108 53 4 -2 10 11 13 29
8 39 40 77 81 96 27 12 28 14 11 21 -19 6 -19 7 3 13 13 3 20 10 17 15 -3 6 1
12 9 16 8 3 15 2 15 -3 0 -5 9 -11 19 -14 13 -3 18 -1 14 8 -3 9 6 15 29 18
18 2 34 5 35 5 1 1 8 -1 17 -4z"/>
<path d="M9865 4442 c-111 -4 -110 -3 -110 -62 0 -38 3 -50 15 -50 11 0 12 -2
3 -8 -14 -9 -16 -35 -10 -180 5 -106 11 -128 27 -102 6 9 10 10 10 3 0 -7 -6
-16 -14 -20 -27 -15 -21 -243 6 -243 5 0 6 -5 3 -10 -4 -6 -10 -8 -15 -5 -4 2
-10 -8 -13 -23 -3 -15 -1 -30 4 -33 6 -3 11 -38 13 -78 1 -39 7 -76 13 -82 6
-6 27 -11 47 -11 20 0 38 -3 40 -7 6 -8 -64 -6 -84 3 -13 5 -16 -5 -15 -65 0
-49 4 -74 13 -77 6 -2 9 -9 5 -15 -14 -22 -31 -77 -23 -77 9 0 6 -32 -5 -49
-5 -9 -4 -12 3 -7 16 10 24 -11 12 -33 -7 -13 -7 -22 0 -26 16 -10 12 -65 -5
-65 -19 0 -19 -16 0 -24 8 -3 12 -12 9 -20 -3 -8 -12 -12 -19 -10 -7 3 -16 0
-21 -7 -5 -8 -2 -11 7 -7 8 3 23 0 34 -8 11 -8 14 -14 6 -14 -10 0 -11 -10 -7
-35 4 -22 3 -35 -4 -35 -5 0 -10 7 -10 17 0 9 -3 14 -6 10 -13 -12 7 -46 24
-41 12 4 11 0 -5 -14 -28 -25 -30 -42 -3 -35 17 5 20 0 20 -31 0 -39 -2 -41
-31 -26 -16 9 -19 7 -19 -10 0 -11 5 -20 10 -20 6 0 10 5 10 12 0 9 3 9 12 0
10 -10 15 -31 22 -109 1 -18 5 -35 8 -38 3 -4 2 -23 -3 -43 -9 -40 -3 -76 12
-67 5 4 9 1 9 -4 0 -6 -5 -11 -11 -11 -6 0 -9 -16 -7 -37 2 -25 8 -38 17 -38
8 0 16 -6 19 -13 3 -11 0 -12 -17 -3 -22 12 -25 9 -22 -21 2 -11 -5 -18 -16
-19 -14 0 -13 -2 6 -10 20 -8 22 -14 17 -39 -5 -25 -2 -31 19 -36 13 -3 29 -3
36 1 6 4 15 1 20 -6 12 -19 11 -29 -1 -29 -6 0 -9 3 -8 8 4 9 -5 12 -38 12
-23 0 -26 -3 -22 -25 3 -14 2 -25 -3 -25 -5 0 -13 -10 -20 -22 -9 -18 -9 -20
4 -15 13 5 15 -7 16 -74 1 -52 -3 -79 -10 -79 -8 0 -7 -5 1 -15 7 -9 15 -48
17 -87 3 -62 1 -69 -12 -58 -20 16 -19 1 1 -21 11 -13 16 -40 17 -103 1 -86
10 -106 27 -63 7 17 9 18 9 5 1 -10 -8 -27 -19 -38 -18 -18 -20 -29 -15 -78 9
-78 15 -173 16 -259 1 -42 6 -73 11 -73 6 0 5 -6 -2 -15 -6 -8 -9 -22 -6 -32
3 -10 6 -66 8 -126 1 -81 5 -107 15 -107 7 0 13 -5 13 -11 0 -5 -4 -8 -9 -5
-10 6 -22 -56 -12 -64 3 -3 6 -32 5 -65 0 -83 -3 -97 -13 -90 -5 3 -12 1 -15
-4 -3 -5 4 -11 15 -14 17 -5 20 -12 17 -39 -2 -22 -9 -35 -22 -38 -29 -8 -32
-30 -4 -30 20 0 23 -6 25 -40 2 -26 -2 -40 -10 -40 -9 0 -9 -2 0 -8 14 -9 25
-100 13 -107 -5 -3 -10 5 -12 17 -3 21 -4 20 -10 -6 -4 -22 -2 -30 13 -33 16
-5 19 -16 20 -67 1 -33 0 -65 -1 -71 -9 -33 -5 -78 6 -90 16 -16 19 -29 4 -20
-5 3 -10 -3 -10 -14 0 -10 -5 -21 -10 -23 -6 -2 -12 -21 -15 -43 -3 -30 -3
-33 3 -11 8 33 29 46 29 19 -1 -10 0 -39 1 -65 l2 -48 191 0 c124 0 188 3 184
10 -3 6 4 10 15 10 16 0 20 5 16 15 -3 8 -1 15 4 15 14 0 12 -24 -2 -38 -18
-18 1962 -17 1981 0 11 10 12 10 7 1 -6 -10 694 -13 3443 -13 l3451 0 0 925
c0 793 -2 926 -14 931 -8 3 -19 19 -25 35 -9 25 -33 43 -30 22 4 -23 -3 -23
-22 1 -11 15 -30 26 -44 26 -12 0 -26 7 -29 16 -5 14 -4 15 9 4 9 -7 19 -9 23
-5 4 4 1 10 -5 12 -7 3 -13 12 -14 21 0 11 -2 13 -6 4 -4 -10 -8 -10 -19 -1
-11 9 -14 8 -14 -5 0 -10 -5 -14 -11 -11 -6 4 -8 14 -5 22 4 11 2 13 -9 10 -8
-4 -17 -2 -20 3 -4 6 -1 10 4 10 6 0 11 5 11 11 0 6 -9 9 -20 6 -13 -3 -20 0
-20 10 0 8 5 11 10 8 6 -3 10 -1 10 4 0 6 -7 11 -17 11 -9 0 -14 3 -10 6 9 9
-16 31 -35 31 -9 0 -15 -4 -12 -9 3 -4 11 -8 18 -8 8 0 16 -11 18 -25 6 -31
-9 -33 -23 -2 -5 12 -16 33 -23 46 -13 21 -15 21 -23 6 -9 -16 -13 -15 -52 4
-23 12 -39 26 -35 32 3 6 -3 13 -15 16 -12 3 -21 13 -21 25 0 11 -5 16 -11 13
-15 -10 -61 4 -54 15 6 10 -7 14 -32 11 -7 -1 -13 3 -13 9 0 5 7 10 16 10 8 0
13 4 10 9 -3 4 -17 6 -31 3 -20 -3 -24 -1 -19 12 3 9 2 16 -4 16 -6 0 -12 -5
-14 -10 -2 -7 -11 -4 -23 5 -20 16 -20 16 3 10 15 -5 22 -2 22 8 0 10 -10 14
-32 13 -26 -1 -33 3 -32 17 1 9 -2 17 -7 17 -5 0 -9 -4 -9 -10 0 -5 -4 -10
-10 -10 -5 0 -10 7 -10 15 0 10 -10 15 -27 16 -16 0 -22 3 -15 6 6 2 12 9 12
14 0 4 -7 6 -15 3 -8 -4 -15 -1 -15 5 0 6 -6 8 -14 5 -7 -3 -16 2 -20 11 -3 9
-10 14 -16 10 -5 -3 -21 12 -35 35 -21 33 -31 40 -56 40 -25 0 -30 3 -25 16 4
12 2 15 -9 10 -8 -3 -15 -1 -15 4 0 6 -7 10 -15 10 -9 0 -33 11 -55 25 -22 14
-42 25 -45 25 -3 0 -23 11 -43 25 -38 26 -37 27 11 27 15 1 27 5 27 10 0 6 -7
7 -16 4 -9 -4 -22 -1 -30 5 -9 7 -18 7 -33 -1 -17 -9 -28 -5 -63 17 -24 16
-44 31 -46 36 -2 4 -8 7 -13 7 -9 0 -52 28 -91 60 -10 8 -18 20 -18 28 0 7 -5
10 -10 7 -6 -4 -24 5 -41 19 -17 14 -37 26 -45 26 -8 0 -22 8 -32 18 -19 19
-58 46 -108 77 -18 11 -64 41 -101 68 -38 26 -75 47 -82 47 -8 0 -11 6 -7 16
3 8 2 12 -4 9 -6 -3 -10 2 -10 12 0 15 -2 15 -9 4 -8 -12 -20 -7 -64 26 -29
23 -61 48 -70 57 -8 9 -19 16 -23 16 -4 0 -22 11 -40 25 -18 14 -37 25 -43 25
-6 0 -11 5 -11 10 0 6 -7 10 -16 10 -9 0 -14 6 -11 13 2 7 -12 16 -37 22 -24
6 -45 18 -51 31 -6 11 -15 19 -21 17 -5 -2 -19 5 -29 15 -11 10 -42 28 -70 41
-27 13 -64 34 -82 47 -17 13 -34 24 -37 24 -3 0 -17 9 -30 21 -13 11 -57 43
-97 70 -41 27 -79 52 -84 56 -6 5 -25 16 -43 26 -18 10 -44 29 -59 43 -14 13
-29 21 -34 18 -5 -3 -9 2 -9 10 0 9 -7 16 -15 16 -8 0 -15 4 -15 8 0 12 -49
34 -60 27 -4 -3 -10 2 -14 10 -3 8 -11 15 -17 15 -8 0 -7 -5 2 -17 12 -14 12
-16 -1 -11 -8 3 -14 15 -13 27 3 20 -6 25 -35 22 -7 -1 -11 4 -10 11 2 8 -9
14 -29 16 -18 2 -33 7 -33 12 0 4 6 7 14 6 8 0 15 4 15 9 1 6 -9 10 -22 11
-12 0 -21 6 -19 13 1 6 -3 11 -10 10 -23 -4 -66 12 -72 27 -3 8 -12 14 -20 14
-9 0 -20 9 -26 20 -6 11 -15 20 -21 20 -6 0 -37 16 -68 35 -38 24 -64 34 -77
29 -16 -5 -16 -4 -4 5 13 10 13 12 0 21 -8 5 -21 8 -27 5 -7 -2 -12 -1 -12 3
4 27 -3 34 -29 29 -15 -3 -34 -1 -42 5 -12 7 -10 9 8 5 32 -7 27 5 -13 31 -37
23 -51 27 -58 15 -2 -5 -2 -3 -1 4 4 17 -42 44 -62 36 -14 -5 -15 -3 -5 15 12
23 9 26 -21 23 -10 -1 -18 3 -18 8 0 6 -7 11 -15 11 -8 0 -15 4 -15 8 0 8 -50
37 -60 34 -3 0 -23 15 -45 34 -22 19 -43 34 -48 34 -4 0 -25 13 -45 28 -32 25
-47 29 -114 31 -42 1 -86 -3 -98 -9 -12 -7 -20 -7 -20 -1 0 6 -20 8 -47 6 -27
-2 -83 -4 -127 -4 -70 -1 -77 -3 -72 -18 6 -17 5 -17 -8 0 -15 19 -96 25 -96
6 0 -5 -5 -7 -11 -4 -15 10 -619 13 -625 4 -3 -5 -15 -5 -27 0 -12 4 -150 8
-305 10 -227 1 -283 -1 -279 -11 2 -7 15 -12 27 -10 l24 2 -24 -20 c-27 -23
-31 -25 -24 -7 2 7 -10 21 -27 31 -27 16 -34 17 -56 5 -15 -8 -27 -9 -31 -4
-4 6 -31 11 -60 12 -40 2 -51 0 -46 -10 6 -9 4 -9 -7 -1 -9 7 -99 11 -266 11
-138 1 -256 4 -261 7 -6 3 -13 2 -17 -3 -3 -6 -13 -7 -21 -4 -9 3 -20 0 -25
-8 -7 -11 -11 -11 -17 -2 -6 10 -100 13 -403 12 -217 0 -402 3 -412 6 -9 4
-17 3 -17 -1 0 -5 -106 -8 -235 -6 -188 2 -235 0 -235 -10 0 -10 -2 -10 -8 -1
-10 16 -722 29 -722 13 0 -5 10 -10 23 -10 16 0 18 -3 8 -9 -7 -5 -11 -14 -7
-20 4 -7 1 -9 -8 -5 -9 3 -15 9 -14 12 1 4 -2 14 -6 23 -8 19 -26 20 -276 19
-171 -1 -184 0 -202 1 -7 1 -56 0 -110 -1 -53 -1 -100 -1 -105 1 -4 2 -39 3
-78 1z m5287 -1942 c11 0 33 -13 49 -29 16 -17 38 -33 49 -36 11 -4 20 -15 20
-25 0 -10 31 -45 73 -81 39 -34 72 -65 72 -68 1 -11 83 -91 94 -91 6 0 11 -4
11 -8 0 -5 7 -17 16 -28 8 -10 13 -13 9 -6 -8 15 24 16 45 1 12 -8 10 -9 -7
-4 -29 8 -29 5 2 -31 14 -16 25 -32 25 -35 0 -3 11 -12 25 -19 14 -7 25 -22
25 -32 0 -10 4 -18 10 -18 18 0 76 -46 73 -57 -3 -7 7 -15 21 -19 16 -4 26
-13 26 -24 0 -11 10 -21 28 -25 25 -7 25 -8 7 -15 -18 -7 -17 -9 13 -22 18 -8
29 -18 25 -22 -4 -4 2 -9 12 -12 11 -3 35 -25 54 -50 18 -24 44 -47 57 -50 14
-4 21 -11 17 -20 -3 -8 -1 -14 5 -14 6 0 27 -16 46 -35 20 -19 40 -35 45 -35
5 0 11 -7 14 -14 4 -11 1 -13 -11 -9 -10 4 -14 2 -9 -3 10 -10 77 -13 77 -3 0
4 44 7 98 8 53 1 111 5 127 10 23 6 36 4 58 -12 15 -10 37 -17 47 -14 21 5 44
-15 32 -28 -4 -5 -2 -5 5 -2 6 4 25 -6 41 -23 19 -19 51 -35 83 -44 29 -7 47
-15 40 -17 -22 -8 5 -49 32 -49 21 0 21 0 -2 -17 -19 -13 -30 -14 -52 -6 -23
9 -27 8 -22 -5 5 -12 1 -14 -23 -8 -43 10 -84 14 -84 7 0 -6 -34 -8 -142 -10
-35 -1 -48 -5 -48 -16 0 -8 5 -15 10 -15 6 0 10 -5 10 -11 0 -13 25 -39 39
-39 5 0 13 -5 17 -12 5 -8 2 -9 -9 -5 -10 3 -17 3 -17 -2 0 -5 8 -12 18 -15 9
-4 32 -15 51 -25 l34 -18 -27 -7 c-15 -4 -24 -11 -20 -17 3 -6 12 -8 20 -5 8
3 14 1 14 -4 0 -5 22 -21 49 -34 27 -14 51 -32 54 -40 4 -9 21 -25 39 -36 l33
-20 -27 0 c-15 0 -39 5 -54 10 -15 6 -29 8 -32 6 -3 -3 4 -9 14 -12 10 -4 32
-18 47 -31 28 -22 84 -33 72 -13 -12 20 12 9 35 -15 13 -14 30 -25 37 -25 8 0
11 -5 8 -10 -4 -7 -12 -7 -25 0 -29 15 -35 12 -16 -9 11 -12 25 -17 38 -13 14
3 27 -4 43 -23 13 -15 29 -24 34 -20 7 3 8 0 5 -9 -4 -11 -20 -14 -67 -12 -35
2 -63 8 -65 14 -4 14 -32 16 -32 2 0 -5 8 -14 18 -19 19 -11 14 -12 -125 -15
-40 0 -73 -5 -73 -10 0 -5 -6 -3 -14 3 -8 7 -17 8 -20 3 -3 -5 -22 -8 -43 -6
-21 1 -40 -1 -43 -6 -3 -4 -59 -11 -125 -15 -66 -3 -146 -8 -179 -11 -36 -2
-70 1 -90 10 -28 12 -46 16 -101 19 -11 1 -31 11 -45 24 -14 13 -31 23 -38 23
-9 0 -12 6 -8 16 4 11 -1 18 -14 21 -22 6 -26 18 -9 29 7 4 -1 12 -20 20 -17
7 -31 19 -31 26 0 7 -13 19 -29 26 -16 7 -36 24 -45 37 -14 21 -14 26 -1 39
21 21 19 26 -11 26 -27 0 -84 34 -84 51 0 5 -18 28 -40 51 -36 38 -38 42 -22
55 15 13 13 14 -16 9 -18 -3 -31 -2 -28 3 3 5 -10 21 -30 36 -19 15 -33 32
-31 38 2 6 -14 26 -36 44 l-39 33 44 -4 c23 -2 33 -1 20 1 -13 2 -26 11 -29
19 -3 8 -13 14 -23 14 -10 0 -26 3 -36 7 -16 6 -16 7 2 15 15 7 14 8 -8 5 -18
-3 -25 0 -21 9 3 7 -7 24 -21 37 -14 13 -26 28 -26 32 0 9 -43 50 -67 64 -16
9 -15 10 5 11 38 0 14 20 -26 21 -20 0 -31 3 -24 6 16 6 15 23 -2 23 -16 0
-75 70 -100 118 -11 21 -31 39 -53 48 -27 12 -34 20 -30 35 3 10 1 16 -4 13
-5 -3 -12 3 -16 13 -9 22 -78 93 -92 93 -5 0 -12 9 -16 20 -7 21 -33 55 -76
99 -14 14 -40 45 -58 69 -26 34 -38 41 -55 36 -21 -6 -21 -6 -1 10 11 9 16 15
10 14 -5 -2 -20 7 -32 19 -19 19 -20 22 -5 26 12 3 7 7 -13 11 -32 8 -87 50
-83 63 2 4 -16 27 -40 51 -23 24 -42 45 -42 48 0 2 22 2 49 -2 36 -5 55 -2 73
10 17 11 33 13 54 8 30 -7 122 -7 184 1 19 2 40 2 45 -2 6 -3 25 -6 44 -7 31
-1 32 0 16 13 -11 7 -15 13 -10 13 5 0 17 -7 27 -17 10 -9 18 -11 18 -6 0 11
119 9 169 -3 19 -4 22 -2 17 12 -4 12 -2 15 9 11 8 -4 18 -1 22 5 5 9 8 9 11
0 2 -7 13 -12 24 -12z m-925 -46 c20 -13 31 -24 24 -24 -8 0 -7 -9 4 -30 9
-16 22 -30 30 -30 15 0 18 -9 16 -40 0 -10 1 -11 5 -2 8 18 37 15 30 -3 -7
-18 85 -131 120 -147 13 -6 24 -15 24 -20 0 -5 -5 -6 -12 -2 -6 4 -8 3 -5 -3
3 -5 19 -8 35 -5 16 2 33 -1 37 -7 3 -6 3 -11 -2 -10 -4 1 -16 1 -26 0 -17 -1
-17 -2 0 -33 10 -18 30 -42 44 -55 22 -19 27 -32 28 -78 1 -40 -3 -55 -13 -55
-10 0 -12 -13 -9 -54 2 -31 -1 -57 -7 -61 -6 -3 -8 -11 -5 -16 4 -5 -2 -6 -12
-2 -15 5 -16 4 -7 -8 15 -18 23 -67 13 -71 -4 -2 -9 -27 -10 -56 -2 -29 -8
-57 -14 -62 -7 -6 -11 -21 -9 -35 1 -14 -2 -25 -8 -25 -6 0 -7 -7 -4 -16 4
-11 2 -15 -8 -11 -13 5 -13 2 -4 -18 12 -26 38 -42 38 -22 0 8 27 13 87 15 48
1 90 6 93 10 9 13 60 13 57 0 -1 -6 9 -12 23 -12 17 0 25 5 24 16 -1 13 4 14
35 6 20 -5 40 -14 46 -19 12 -12 45 -11 45 1 0 6 -4 10 -9 10 -5 0 -11 7 -14
15 -7 15 0 14 96 -28 44 -19 69 -44 30 -30 -16 6 -16 4 1 -15 19 -22 19 -22
-2 -22 -11 0 -24 -4 -27 -10 -4 -6 9 -8 35 -5 35 5 45 2 60 -17 9 -13 17 -26
16 -30 0 -3 10 -18 23 -32 27 -29 23 -43 -7 -27 -16 9 -21 7 -25 -11 -5 -16
-9 -19 -19 -11 -7 6 -30 12 -50 13 -74 3 -81 5 -95 27 -16 23 -41 33 -27 11 5
-7 9 -21 9 -30 2 -16 -5 -18 -64 -13 -36 3 -75 9 -86 12 -17 5 -18 4 -6 -11
17 -20 5 -20 -33 -1 -33 17 -50 10 -23 -10 16 -11 14 -13 -20 -10 -21 1 -46 6
-55 10 -13 5 -18 2 -18 -10 0 -17 -1 -17 -19 -1 -14 12 -21 14 -26 6 -4 -7
-19 -10 -36 -6 -16 3 -29 1 -29 -4 0 -14 -74 -12 -89 2 -11 11 -13 10 -8 -4 8
-22 -6 -23 -23 -3 -17 20 -34 19 -26 -1 5 -14 0 -15 -38 -10 -26 4 -54 3 -65
-3 -14 -8 -20 -7 -25 4 -3 8 -16 15 -28 15 -22 -1 -22 -1 -4 -15 11 -8 14 -15
8 -15 -7 0 -21 9 -32 20 -17 17 -21 18 -26 5 -7 -18 -55 -20 -73 -2 -11 10
-13 9 -7 -6 6 -17 2 -18 -46 -12 -29 4 -60 13 -69 21 -21 19 -33 18 -25 -2 5
-12 0 -15 -22 -13 -15 2 -33 0 -40 -4 -6 -5 -12 -4 -12 2 0 6 -10 11 -22 11
-26 1 -58 22 -58 38 0 5 -7 12 -15 15 -8 4 -21 22 -29 42 -8 19 -20 35 -26 35
-6 0 -16 14 -21 30 -6 17 -18 30 -27 31 -12 0 -10 3 5 9 14 6 21 15 17 23 -3
8 2 17 11 21 11 4 15 12 11 23 -4 9 -1 20 6 24 7 5 13 12 14 16 1 8 9 31 25
72 7 17 7 26 -1 31 -7 5 -3 9 10 13 12 3 19 10 16 15 -3 5 1 15 9 22 8 7 15
21 15 31 0 11 5 19 10 19 6 0 10 -7 10 -15 0 -8 5 -15 10 -15 14 0 12 11 -5
34 -22 29 -18 37 11 26 32 -13 44 -13 44 0 0 6 -6 10 -13 10 -7 0 -25 5 -39
12 -25 12 -25 13 -5 23 12 6 21 22 23 39 2 16 7 32 12 35 19 13 21 41 4 51
-14 10 -13 11 9 7 23 -3 25 -1 24 30 0 19 4 33 11 33 7 0 10 8 7 20 -3 12 0
20 6 20 7 0 9 5 5 11 -3 6 -1 15 6 19 7 4 9 13 6 19 -4 6 -11 9 -16 6 -4 -3
-14 3 -21 12 -12 14 -11 15 9 9 14 -5 22 -3 22 4 0 6 4 9 9 6 8 -5 22 16 26
39 6 47 20 91 29 97 6 4 12 15 13 25 5 43 31 103 45 103 13 0 9 22 -8 41 -15
16 -14 17 5 12 14 -4 21 -1 21 9 0 11 15 14 61 15 49 1 68 -4 96 -23z"/>
<path d="M16261 1223 c-7 -8 -21 -11 -32 -8 -22 7 -23 2 -8 -28 22 -41 49 -44
49 -6 0 25 16 25 23 -1 3 -13 11 -18 20 -14 8 3 18 0 23 -7 5 -9 2 -10 -11 -6
-14 6 -16 3 -12 -14 4 -16 3 -19 -6 -10 -6 6 -18 11 -26 11 -8 0 -11 -3 -7 -7
3 -4 -6 -13 -21 -20 -16 -7 -20 -11 -10 -8 10 2 25 -4 34 -15 10 -11 24 -20
33 -20 12 1 11 4 -4 15 -11 8 -15 15 -9 15 21 0 58 -18 80 -39 12 -12 29 -21
37 -21 8 0 24 -9 34 -21 11 -11 30 -21 44 -23 13 -1 28 -5 33 -8 22 -12 85
-19 85 -8 0 5 -13 10 -29 10 -16 0 -42 7 -57 15 -16 8 -37 15 -46 15 -9 0 -20
5 -24 12 -5 8 0 9 14 6 12 -4 22 -2 22 3 0 5 -11 11 -25 15 -14 3 -25 10 -25
14 0 4 -8 11 -17 14 -13 5 -11 0 6 -18 31 -33 16 -33 -32 0 -38 26 -38 26 -18
43 12 10 21 23 21 29 0 6 11 20 25 30 17 14 22 23 14 27 -6 4 -15 1 -20 -6 -6
-11 -11 -11 -20 -2 -6 6 -17 10 -23 9 -6 -2 -7 -1 -3 2 9 5 -11 32 -24 32 -5
0 -6 -6 -3 -13 3 -8 -3 -13 -16 -13 -11 0 -20 6 -20 12 0 18 -34 23 -49 7z"/>
<path d="M135 4432 c-1 -1 -32 -3 -69 -3 l-66 -1 0 -1168 c0 -769 3 -1171 10
-1175 5 -3 10 -2 10 3 0 17 34 24 45 9 16 -21 45 -29 45 -12 0 8 -9 15 -19 15
-11 0 -22 4 -25 9 -8 12 79 82 104 84 10 1 17 3 15 6 -3 2 6 11 18 20 98 66
114 73 103 46 -3 -8 -3 -15 0 -15 3 0 10 13 15 30 6 16 20 32 32 36 11 3 29
15 40 25 11 10 24 16 28 13 4 -2 13 5 19 16 6 11 15 20 21 20 6 0 28 14 49 31
22 18 49 32 62 33 13 1 22 7 20 14 -1 7 2 12 8 12 5 0 10 -4 10 -10 0 -5 5
-10 10 -10 6 0 10 5 10 12 0 16 49 58 67 58 7 0 13 4 13 10 0 5 6 8 13 6 6 -1
9 -1 5 1 -12 7 -9 23 3 23 6 0 18 7 26 16 9 8 24 13 35 11 10 -3 16 -1 13 3
-3 5 5 14 17 21 13 7 26 17 30 23 4 6 13 11 21 11 7 0 24 10 37 23 13 12 43
31 66 43 23 11 45 27 48 36 4 9 9 13 12 10 4 -3 21 4 38 17 43 33 109 64 123
59 7 -2 20 1 30 7 16 10 15 11 -7 6 l-25 -5 25 19 c14 11 33 27 42 36 10 10
26 14 38 11 11 -3 18 -1 15 3 -3 4 10 17 28 29 l32 20 7 -22 c7 -19 7 -18 4 5
-2 21 3 32 23 44 14 10 34 26 45 36 11 10 28 18 37 18 10 0 19 3 21 8 2 4 28
23 58 42 30 19 57 37 60 40 9 9 100 70 105 70 3 0 28 16 55 35 27 19 52 35 55
35 3 0 14 8 25 18 21 17 64 44 135 82 22 12 72 44 112 70 39 27 85 56 102 65
17 8 31 21 31 28 0 9 12 12 38 10 20 -1 29 0 19 3 -14 5 -11 10 18 30 20 13
38 24 40 24 3 0 15 9 28 20 13 12 37 28 53 38 116 67 144 85 144 92 0 4 8 10
18 14 34 12 77 44 74 56 -2 7 5 9 18 5 15 -5 20 -2 20 10 0 9 6 15 12 13 7 -3
33 10 58 27 25 17 75 48 112 69 37 21 70 42 74 47 3 5 20 16 37 25 62 29 77
39 77 46 0 5 7 8 15 8 8 0 15 5 15 10 0 6 8 10 18 10 24 0 42 19 35 39 -4 13
-3 13 5 2 8 -11 24 -4 80 33 39 25 73 46 77 46 3 0 27 15 53 33 59 41 230 147
238 147 2 0 14 8 25 19 20 18 14 19 -290 17 -252 -2 -313 -5 -327 -17 -10 -8
-15 -9 -11 -3 4 7 1 14 -6 16 -13 5 -731 1 -1014 -5 -167 -4 -183 -6 -204 -26
-12 -11 -25 -18 -28 -15 -3 3 3 12 13 20 18 13 16 14 -25 14 -24 1 -285 3
-579 5 -294 3 -649 6 -788 7 -140 2 -255 2 -257 0z"/>
<path d="M15536 4427 c11 -6 21 -13 24 -17 3 -4 25 -18 50 -32 25 -14 86 -51
135 -82 50 -31 99 -62 110 -69 11 -7 51 -32 88 -56 56 -35 71 -41 79 -30 8 11
9 11 5 -2 -7 -20 11 -39 35 -39 10 0 18 -4 18 -10 0 -5 7 -10 15 -10 8 0 15
-4 15 -9 0 -5 8 -11 18 -15 9 -3 37 -19 62 -35 25 -16 74 -47 110 -67 36 -21
85 -52 110 -69 25 -17 51 -30 58 -27 6 2 12 -4 12 -13 0 -12 5 -15 20 -10 13
4 20 2 18 -5 -3 -12 40 -44 75 -56 9 -4 17 -10 17 -14 0 -7 28 -25 144 -92 16
-10 40 -26 53 -38 13 -11 25 -20 28 -20 2 0 20 -11 40 -24 23 -16 31 -26 23
-30 -7 -3 2 -5 20 -3 21 2 32 -1 32 -9 0 -8 14 -21 31 -29 17 -9 63 -38 102
-64 86 -58 156 -99 180 -107 9 -4 17 -10 17 -15 0 -5 6 -9 13 -9 7 0 23 -9 35
-20 12 -11 26 -20 32 -20 5 0 10 -4 10 -8 0 -5 15 -16 33 -26 38 -20 62 -34
100 -60 22 -15 25 -21 15 -28 -9 -7 -8 -8 6 -4 12 4 42 -9 90 -41 39 -27 73
-51 76 -54 3 -4 15 -9 27 -13 13 -4 29 -13 35 -20 27 -26 146 -106 158 -106 8
0 20 -7 29 -15 9 -8 27 -24 41 -35 l25 -19 -25 5 c-22 5 -23 4 -7 -6 10 -6 23
-9 30 -7 14 5 80 -26 123 -59 17 -13 34 -20 38 -17 3 3 8 -1 12 -10 3 -9 25
-25 48 -36 23 -12 53 -31 66 -43 14 -13 29 -22 33 -20 5 1 14 -4 21 -12 6 -8
39 -29 74 -47 34 -18 62 -36 62 -41 0 -5 -5 -6 -12 -2 -7 4 -8 3 -4 -5 4 -6
12 -9 17 -6 5 4 9 2 9 -4 0 -5 9 -13 21 -16 28 -9 59 -36 59 -52 0 -7 5 -13
10 -13 6 0 10 5 10 10 0 6 4 10 10 10 5 0 9 -5 7 -12 -1 -7 8 -13 20 -14 13
-1 44 -18 70 -38 25 -20 52 -36 60 -36 7 0 12 -6 10 -13 -1 -6 4 -11 11 -10 6
2 12 -2 12 -7 0 -6 7 -10 15 -10 8 0 15 -4 15 -9 0 -5 11 -12 24 -15 15 -4 28
-17 34 -36 6 -16 13 -30 16 -30 3 0 3 7 0 15 -4 8 -3 15 0 15 14 0 66 -31 66
-39 0 -5 13 -14 30 -21 16 -7 27 -16 24 -21 -3 -5 5 -9 17 -9 26 0 112 -67
104 -81 -4 -5 -15 -9 -26 -9 -10 0 -19 -7 -19 -15 0 -17 29 -9 45 12 11 15 45
8 45 -9 0 -5 5 -6 10 -3 7 4 10 407 10 1176 l0 1170 -32 -1 c-18 -1 -235 -2
-483 -2 -580 -2 -1210 -5 -1254 -7 -33 -1 -34 -2 -15 -16 10 -8 14 -15 7 -15
-6 0 -19 7 -28 17 -14 13 -46 17 -193 20 -307 6 -1006 10 -1019 5 -7 -2 -10
-9 -6 -16 4 -6 -1 -4 -11 4 -15 12 -72 15 -333 16 -219 1 -310 -2 -297 -9z"/>
</g>
</svg>
